<?xml version="1.0" standalone="no"?>
<!DOCTYPE svg PUBLIC "-//W3C//DTD SVG 20010904//EN"
 "http://www.w3.org/TR/2001/REC-SVG-20010904/DTD/svg10.dtd">
<svg version="1.0" xmlns="http://www.w3.org/2000/svg"
 width="2378.000000pt" height="1890.000000pt" viewBox="0 0 2378.000000 1890.000000"
 preserveAspectRatio="xMidYMid meet">

<g transform="translate(0.000000,1890.000000) scale(0.100000,-0.100000)"
fill="#000000" stroke="none">
<path d="M9200 18233 c-211 -14 -407 -56 -516 -108 -118 -57 -270 -212 -407
-417 -38 -57 -2963 -5113 -3045 -5263 -13 -25 20 18 93 120 514 717 1351 1569
2240 2280 2045 1635 4537 2826 6830 3265 268 51 468 80 865 123 42 5 -5995 5
-6060 0z"/>
<path d="M15454 18019 c165 -370 333 -840 470 -1317 818 -2848 760 -6419 -148
-9147 -119 -357 -278 -759 -382 -968 -20 -39 -32 -67 -27 -62 6 6 696 1198
1534 2650 1109 1922 1538 2673 1576 2763 96 221 129 374 111 505 -12 94 -76
285 -138 415 -42 88 -3038 5290 -3061 5317 -5 5 24 -65 65 -156z"/>
<path d="M5319 12145 c410 -717 2924 -5065 2954 -5110 125 -187 299 -369 399
-417 72 -36 201 -73 330 -95 97 -17 277 -18 3168 -19 1686 0 3049 1 3030 3
-485 50 -940 131 -1468 263 -2983 741 -6177 2701 -8050 4940 -85 102 -207 255
-271 341 -64 86 -126 169 -138 185 -13 16 8 -25 46 -91z"/>
<path d="M8280 5079 c-179 -20 -389 -97 -541 -200 -81 -54 -227 -195 -289
-279 -150 -205 -224 -435 -224 -700 0 -154 15 -250 59 -380 138 -404 495 -712
914 -785 124 -22 321 -19 444 6 764 155 1170 994 820 1694 -218 437 -695 697
-1183 644z m263 -444 c151 -32 303 -137 388 -269 151 -232 163 -633 27 -888
-69 -131 -211 -248 -355 -295 -101 -34 -274 -38 -367 -9 -313 95 -490 384
-473 771 7 144 32 250 86 360 126 255 410 390 694 330z"/>
<path d="M12961 5079 c-273 -30 -522 -150 -713 -345 -95 -97 -146 -164 -203
-269 -252 -465 -164 -1043 216 -1410 141 -136 277 -220 451 -278 184 -62 419
-76 611 -36 552 112 947 596 947 1159 0 239 -70 465 -208 675 -92 139 -286
307 -447 388 -188 94 -444 139 -654 116z m263 -444 c113 -24 209 -78 301 -170
92 -91 132 -159 169 -289 49 -167 51 -370 6 -535 -62 -225 -212 -391 -417
-459 -100 -33 -273 -37 -368 -8 -169 51 -310 167 -384 317 -69 140 -85 217
-85 409 0 191 16 269 83 405 126 255 410 390 695 330z"/>
<path d="M5190 4805 l0 -215 355 0 355 0 0 -905 0 -905 250 0 250 0 0 905 0
905 355 0 355 0 0 215 0 215 -960 0 -960 0 0 -215z"/>
<path d="M9604 5013 c2 -5 203 -320 445 -702 l441 -695 0 -418 0 -418 255 0
255 0 0 418 1 417 444 700 445 700 -292 3 c-160 1 -295 -1 -299 -5 -4 -5 -128
-217 -275 -473 -147 -256 -270 -468 -273 -472 -4 -4 -130 208 -281 472 l-275
479 -298 1 c-164 0 -296 -3 -293 -7z"/>
<path d="M14380 4805 l0 -215 355 0 355 0 0 -905 0 -905 250 0 250 0 0 905 0
905 355 0 355 0 0 215 0 215 -960 0 -960 0 0 -215z"/>
<path d="M17049 4993 c-6 -16 -206 -512 -446 -1103 -240 -591 -438 -1083 -441
-1093 -4 -16 12 -17 274 -15 l278 3 92 245 92 245 475 3 475 2 30 -77 c16 -43
58 -156 93 -250 l63 -173 278 0 c153 0 278 3 278 6 0 3 -203 507 -451 1120
l-452 1114 -314 0 -313 0 -11 -27z m495 -897 c86 -230 156 -420 156 -422 0 -2
-146 -4 -325 -4 -179 0 -325 3 -325 6 0 4 68 189 151 413 84 223 156 417 161
431 8 20 11 22 18 10 4 -8 78 -203 164 -434z"/>
<path d="M3755 2031 c-230 -57 -348 -193 -349 -401 0 -90 16 -131 75 -194 81
-88 196 -136 450 -186 185 -36 255 -66 282 -123 37 -75 -2 -160 -89 -193 -65
-25 -240 -25 -311 -1 -57 20 -109 70 -119 115 -15 67 0 62 -175 62 l-160 0 7
-52 c25 -200 138 -319 361 -380 111 -30 344 -30 455 0 163 44 264 116 318 225
73 151 64 291 -27 388 -91 98 -206 142 -532 204 -132 25 -194 62 -211 126 -15
56 9 109 63 140 34 19 60 24 137 27 55 2 114 -1 139 -8 60 -16 106 -64 116
-118 l7 -42 160 0 160 0 -7 57 c-23 185 -153 315 -360 358 -97 20 -300 18
-390 -4z"/>
<path d="M9526 2031 c-128 -36 -212 -85 -312 -185 -75 -75 -99 -106 -133 -176
-57 -119 -75 -194 -75 -320 1 -215 89 -401 252 -536 131 -107 272 -157 447
-158 125 -1 212 21 325 80 144 75 286 233 325 362 l6 22 -163 0 -163 0 -33
-50 c-65 -100 -173 -155 -302 -153 -139 1 -254 70 -317 190 -104 198 -63 485
87 603 75 59 125 75 235 75 81 0 109 -4 147 -22 55 -25 131 -93 165 -145 l23
-38 160 0 c88 0 160 4 160 9 0 20 -35 90 -76 152 -83 126 -211 225 -355 274
-112 38 -296 45 -403 16z"/>
<path d="M15095 2040 c-182 -27 -315 -112 -373 -238 -20 -45 -27 -77 -30 -149
-4 -85 -2 -98 22 -148 62 -125 184 -187 491 -250 231 -47 292 -81 302 -168 8
-65 -25 -122 -85 -150 -41 -19 -65 -22 -177 -22 -120 0 -134 2 -180 26 -57 29
-93 75 -101 131 l-7 38 -155 0 -155 0 6 -66 c17 -175 140 -304 347 -361 93
-26 377 -26 470 0 155 43 263 125 316 240 26 56 29 73 29 167 0 97 -2 109 -28
152 -66 113 -222 185 -513 238 -141 26 -203 50 -244 97 -57 65 -30 156 58 196
37 16 67 21 142 21 151 1 222 -38 237 -129 l6 -35 153 0 154 0 0 33 c0 88 -62
213 -135 270 -117 92 -348 137 -550 107z"/>
<path d="M6577 2008 c-2 -7 -121 -299 -262 -648 -142 -349 -260 -643 -263
-652 -4 -17 8 -18 160 -18 l165 0 54 145 53 145 282 0 281 0 54 -145 53 -145
164 0 164 0 -6 23 c-3 12 -122 310 -265 662 l-260 640 -184 3 c-142 2 -186 0
-190 -10z m287 -537 c47 -128 86 -237 86 -242 0 -5 -83 -9 -185 -9 -102 0
-185 3 -185 6 0 5 131 362 176 478 4 10 10 14 14 9 4 -4 46 -113 94 -242z"/>
<path d="M660 1350 l0 -660 150 0 150 0 0 270 0 270 113 0 112 0 164 -270 164
-270 179 0 c98 0 178 2 178 4 0 2 -74 125 -165 275 -91 149 -165 275 -165 279
0 4 20 15 45 25 107 44 180 149 194 278 21 196 -42 339 -178 409 -89 45 -142
50 -553 50 l-388 0 0 -660z m747 393 c46 -22 73 -67 73 -123 0 -56 -27 -101
-73 -123 -29 -14 -69 -17 -241 -17 l-206 0 0 140 0 140 206 0 c172 0 212 -3
241 -17z"/>
<path d="M2080 1350 l0 -660 540 0 540 0 0 130 0 130 -390 0 -390 0 0 145 0
145 330 0 330 0 0 125 0 125 -330 0 -330 0 0 135 0 135 385 0 385 0 0 125 0
125 -535 0 -535 0 0 -660z"/>
<path d="M4810 1350 l0 -660 540 0 540 0 0 130 0 130 -390 0 -390 0 0 145 0
145 330 0 330 0 0 125 0 125 -330 0 -330 0 0 135 0 135 385 0 385 0 0 125 0
125 -535 0 -535 0 0 -660z"/>
<path d="M7672 1353 l3 -658 150 0 150 0 3 268 2 268 111 -3 111 -3 162 -267
161 -267 178 -1 c97 0 177 3 177 6 0 4 -75 130 -166 281 -91 151 -165 275
-163 277 2 2 19 8 38 15 19 6 53 26 76 43 92 71 130 161 130 308 0 190 -72
302 -232 362 -56 22 -74 23 -476 26 l-417 3 2 -658z m747 389 c52 -26 76 -65
76 -122 0 -57 -24 -96 -76 -122 -29 -15 -63 -18 -236 -18 l-203 0 0 140 0 140
203 0 c173 0 207 -3 236 -18z"/>
<path d="M10592 1353 l3 -658 148 -3 147 -3 0 276 0 275 285 0 285 0 0 -275 0
-276 148 3 147 3 3 658 2 657 -150 0 -150 0 0 -260 0 -260 -285 0 -285 0 0
260 0 260 -150 0 -150 0 2 -657z"/>
<path d="M12620 1355 l0 -655 145 0 145 0 0 655 0 655 -145 0 -145 0 0 -655z"/>
<path d="M13230 1355 l0 -655 145 0 145 0 0 391 c0 214 4 388 9 385 4 -3 131
-179 282 -391 l274 -385 147 0 148 0 0 655 0 655 -145 0 -145 0 -2 -396 -3
-396 -280 393 -280 394 -148 3 -147 3 0 -656z"/>
<path d="M16010 1885 l0 -125 210 0 210 0 0 -530 0 -530 145 0 145 0 0 530 0
530 210 0 210 0 0 125 0 125 -565 0 -565 0 0 -125z"/>
<path d="M17380 1355 l0 -655 145 0 145 0 0 655 0 655 -145 0 -145 0 0 -655z"/>
<path d="M17910 1885 l0 -125 210 0 210 0 0 -530 0 -530 145 0 145 0 0 530 0
530 210 0 210 0 0 125 0 125 -565 0 -565 0 0 -125z"/>
<path d="M19280 1542 c0 -509 3 -539 57 -632 33 -56 110 -131 169 -166 90 -53
179 -76 314 -81 149 -6 239 10 345 60 100 48 176 121 222 215 l38 76 3 498 3
498 -145 0 -145 0 -3 -452 c-3 -448 -3 -454 -26 -503 -45 -99 -103 -135 -227
-143 -151 -9 -248 42 -291 154 -17 45 -19 90 -22 497 l-3 447 -145 0 -144 0 0
-468z"/>
<path d="M20670 1885 l0 -125 210 0 210 0 0 -530 0 -530 145 0 145 0 0 530 0
530 210 0 210 0 0 125 0 125 -565 0 -565 0 0 -125z"/>
<path d="M22040 1355 l0 -655 535 0 535 0 0 120 0 120 -390 0 -390 0 0 150 0
150 335 0 335 0 0 125 0 125 -335 0 -335 0 0 135 0 135 385 0 385 0 0 125 0
125 -530 0 -530 0 0 -655z"/>
</g>
</svg>
