<?xml version="1.0" standalone="no"?>
<!DOCTYPE svg PUBLIC "-//W3C//DTD SVG 20010904//EN"
 "http://www.w3.org/TR/2001/REC-SVG-20010904/DTD/svg10.dtd">
<svg version="1.0" xmlns="http://www.w3.org/2000/svg"
 width="240.000000pt" height="240.000000pt" viewBox="0 0 240.000000 240.000000"
 preserveAspectRatio="xMidYMid meet">

<g transform="translate(0.000000,240.000000) scale(0.100000,-0.100000)"
fill="#000000" stroke="none">
<path d="M1020 2355 c-122 -19 -240 -59 -362 -122 -560 -290 -785 -981 -503
-1548 163 -329 459 -556 819 -629 372 -76 773 44 1045 313 460 457 465 1195
11 1652 -101 101 -183 161 -305 222 -219 110 -467 149 -705 112z m49 -119 c7
-8 20 -12 30 -9 32 8 35 -17 6 -44 -19 -19 -24 -28 -15 -33 9 -6 11 -21 6 -49
-7 -43 0 -49 35 -31 10 6 19 21 20 33 1 19 2 18 14 -8 13 -29 13 -30 -17 -43
-17 -7 -42 -11 -56 -7 -20 5 -23 11 -20 36 l5 31 -24 -31 c-29 -37 -52 -42
-29 -6 9 14 12 25 6 25 -5 0 -10 7 -10 15 0 8 5 15 10 15 6 0 10 7 10 15 0 8
-4 15 -8 15 -16 0 -32 -50 -32 -98 0 -43 -1 -45 -17 -30 -15 15 -38 127 -28
137 3 2 12 -2 21 -10 16 -13 16 -12 5 9 -6 12 -17 22 -24 22 -6 0 -2 10 10 21
25 25 46 17 38 -14 -2 -12 -2 -16 1 -9 3 6 12 12 20 12 9 0 14 8 13 18 -3 36
9 43 30 18z m260 -18 c5 -15 3 -30 -6 -45 -13 -19 -12 -21 3 -19 10 2 25 13
33 26 13 19 13 22 2 15 -11 -6 -13 -4 -8 9 4 10 7 20 7 22 0 2 7 4 15 4 18 0
20 -41 3 -59 -11 -11 -9 -12 8 -7 13 4 30 0 44 -12 l22 -18 -21 -42 c-26 -51
-45 -63 -82 -49 l-28 11 35 39 c20 21 32 42 28 45 -4 4 -9 1 -12 -7 -7 -19
-43 -54 -49 -47 -3 3 -1 12 6 20 9 11 8 15 -3 19 -20 8 -26 -1 -26 -45 0 -45
-7 -47 -38 -8 l-22 28 26 21 c15 12 24 24 21 28 -4 3 -13 0 -21 -6 -19 -16
-29 0 -20 34 7 27 19 33 28 13 7 -17 38 22 32 39 -3 7 -1 13 5 13 5 0 13 -10
18 -22z m13 -50 c-7 -7 -12 -8 -12 -2 0 6 3 14 7 17 3 4 9 5 12 2 2 -3 -1 -11
-7 -17z m-583 3 c8 -5 12 -18 8 -31 -5 -19 -2 -21 16 -16 12 3 29 1 37 -4 12
-8 12 -11 -1 -27 -29 -33 -31 -53 -6 -53 20 0 23 -5 22 -47 0 -45 -2 -48 -27
-51 -15 -2 -37 2 -48 8 -20 11 -20 13 -6 35 9 14 16 32 16 42 0 14 -2 15 -9 4
-5 -7 -14 -10 -20 -6 -8 4 -2 18 19 41 43 50 37 55 -11 9 -34 -34 -40 -45 -37
-72 4 -36 -3 -41 -22 -18 -7 8 -10 29 -7 47 2 18 1 40 -4 50 -12 22 17 33 30
10 5 -9 13 -13 17 -9 4 4 -2 17 -13 30 -18 19 -19 24 -7 35 11 10 14 10 14 -2
0 -8 5 -18 11 -22 8 -5 10 3 7 25 -5 33 -2 36 21 22z m884 -50 c3 -14 11 -17
28 -14 15 3 35 -4 52 -17 27 -22 28 -23 10 -42 -10 -11 -28 -24 -40 -29 -15
-5 -21 -14 -17 -24 4 -10 0 -15 -12 -15 -16 0 -16 -1 2 -14 30 -23 12 -27 -39
-8 -43 16 -61 41 -24 34 11 -2 15 2 11 13 -4 9 -1 15 7 15 10 0 14 15 15 46 1
41 0 44 -14 30 -8 -8 -16 -25 -17 -38 -1 -14 -10 -25 -26 -29 -42 -12 -59 -10
-53 6 4 8 13 15 21 15 11 0 13 7 9 25 -6 22 -3 25 19 25 27 0 32 9 13 28 -9 9
-5 12 19 12 22 0 32 -6 36 -19z m-1113 -146 c18 -19 26 -22 37 -13 18 14 29 3
15 -15 -9 -11 -5 -20 19 -43 17 -16 40 -42 52 -59 l22 -30 -30 22 c-17 11 -41
33 -55 48 l-25 27 -5 -33 c-3 -18 -11 -35 -19 -37 -10 -3 -12 0 -8 11 4 10 -7
29 -29 52 -40 42 -41 45 -14 45 26 0 25 15 -2 34 -22 16 -22 16 -2 16 11 0 31
-11 44 -25z m1360 6 c0 -5 9 -11 21 -14 29 -8 19 -31 -17 -37 -19 -4 -25 -8
-16 -13 7 -5 10 -13 7 -18 -4 -5 5 -9 19 -9 16 0 26 6 26 15 0 19 4 19 40 0
31 -16 40 -35 16 -35 -17 0 -27 -25 -19 -46 4 -12 1 -15 -14 -12 -11 2 -39
-14 -68 -39 -27 -23 -51 -40 -54 -37 -3 2 17 26 43 53 35 36 44 50 33 54 -8 3
-23 -1 -34 -8 -10 -8 -24 -15 -32 -15 -12 0 -12 3 1 18 19 22 30 52 18 52 -5
0 -12 -5 -15 -10 -5 -8 -11 -8 -19 -1 -7 6 -16 7 -21 3 -4 -4 -5 3 -2 15 4 20
2 22 -19 17 -17 -4 -24 -2 -24 9 0 10 16 17 55 22 45 5 55 10 55 26 0 10 5 19
10 19 6 0 10 -4 10 -9z m-501 -37 c263 -65 477 -277 552 -549 31 -111 31 -277
0 -389 -61 -222 -211 -400 -417 -497 -110 -52 -187 -69 -323 -69 -140 0 -215
17 -336 75 -205 99 -358 289 -411 511 -24 100 -21 267 5 369 77 292 328 519
623 564 81 13 224 5 307 -15z m-929 -35 c0 -15 4 -19 16 -15 24 9 44 -12 44
-44 0 -19 9 -36 28 -50 l27 -21 -27 5 c-16 4 -28 1 -30 -6 -8 -22 -28 3 -29
35 -1 24 -3 26 -6 10 -3 -16 -11 -23 -28 -23 -23 0 -23 1 -9 30 18 36 9 60
-13 33 -14 -17 -14 -16 -9 7 3 14 6 33 6 43 0 9 7 17 15 17 9 0 15 -9 15 -21z
m1597 -175 c-3 -4 5 -16 19 -27 21 -16 28 -17 34 -6 7 11 10 10 16 -4 3 -9 3
-24 0 -33 -3 -8 -1 -25 5 -36 16 -30 -4 -47 -29 -25 -23 21 -32 21 -32 2 0
-18 -20 -20 -21 -2 0 10 -2 10 -6 0 -2 -7 -20 -13 -39 -13 -38 0 -41 -6 -18
-38 10 -14 22 -21 31 -17 13 4 14 3 3 -10 -20 -24 -39 -18 -57 19 -20 43 -12
66 24 67 24 1 22 2 -11 10 -45 11 -69 27 -60 41 4 6 10 6 17 -1 15 -15 27 -14
21 3 -9 23 14 28 26 6 7 -13 18 -19 26 -16 9 4 18 -3 24 -17 5 -12 9 -16 9 -9
1 6 7 12 15 12 20 0 28 28 13 51 -10 16 -19 19 -46 14 -39 -7 -40 15 0 26 33
9 44 10 36 3z m-1646 -41 c64 -33 74 -59 35 -98 -14 -14 -26 -30 -26 -34 0
-17 -31 -33 -53 -27 -26 6 -96 57 -97 70 0 4 12 5 28 1 22 -5 25 -4 15 6 -15
15 -17 45 -4 54 6 3 25 -3 45 -14 23 -13 36 -16 38 -9 8 23 30 -5 25 -30 -5
-25 -4 -25 9 -7 20 26 18 42 -7 56 -15 8 -24 8 -28 1 -4 -7 -12 -7 -20 -3 -7
5 -11 14 -7 20 8 13 -37 26 -60 17 -9 -3 -14 -12 -11 -19 2 -6 0 -20 -5 -31
-8 -15 -12 -16 -19 -5 -9 15 -3 46 13 67 17 20 71 14 129 -15z m1651 -18 c4
-5 2 -13 -4 -16 -12 -8 -58 10 -58 22 0 11 54 6 62 -6z m121 -226 c3 -11 15
-23 26 -26 12 -3 17 -11 14 -19 -8 -20 -22 -17 -43 9 -10 12 -21 19 -25 15 -3
-3 14 -28 40 -54 27 -29 43 -54 40 -63 -4 -11 -10 -10 -28 8 -24 22 -47 28
-47 12 0 -5 4 -11 9 -13 14 -5 17 -51 4 -55 -7 -3 -13 2 -13 11 0 14 -10 15
-70 10 -38 -4 -70 -4 -70 -1 0 3 27 11 60 18 37 7 59 16 57 23 -3 6 -10 10
-18 8 -19 -5 -59 7 -59 17 0 14 38 20 45 7 3 -8 7 -8 10 0 3 6 18 9 33 7 21
-4 24 -2 12 6 -8 6 -23 11 -32 11 -9 0 -19 8 -23 19 -3 10 -19 21 -35 25 -47
9 -36 26 13 20 30 -4 48 -1 62 10 27 20 32 20 38 -5z m-1935 -28 c12 -11 22
-24 22 -30 0 -15 28 -27 77 -36 68 -11 67 -29 -2 -21 l-57 6 4 -25 c6 -31 -4
-38 -55 -41 -30 -2 -35 1 -27 11 16 19 -8 65 -34 65 -28 0 -50 15 -42 29 4 6
15 11 26 11 11 0 20 10 24 25 8 30 32 32 64 6z m107 -301 c0 -12 -17 -16 -82
-18 -68 -2 -83 0 -83 12 0 15 35 21 125 21 29 0 40 -4 40 -15z m1729 -27 c4
-4 -3 -15 -15 -24 -14 -10 -20 -22 -16 -33 10 -25 20 -19 42 22 34 64 99 51
97 -19 -1 -36 -18 -59 -43 -59 -25 0 -24 17 2 30 13 7 19 19 17 33 -5 34 -31
26 -50 -15 -15 -32 -23 -38 -48 -38 -23 0 -33 6 -40 25 -18 47 24 108 54 78z
m-1772 -41 c-1 -7 2 -21 8 -32 20 -37 4 -52 -72 -66 -31 -5 -38 -3 -38 10 0
14 14 20 65 28 11 2 20 10 20 18 0 11 -14 17 -48 20 -57 6 -62 23 -10 31 53 9
78 6 75 -9z m22 -128 c21 -20 21 -74 1 -74 -11 0 -14 7 -9 24 3 13 1 27 -5 30
-7 5 -11 -4 -11 -23 0 -16 -7 -37 -16 -46 -14 -14 -19 -14 -38 -2 -24 16 -30
77 -8 85 8 2 11 -6 10 -27 -4 -39 16 -45 20 -6 4 31 18 55 33 55 4 0 15 -7 23
-16z m1839 1 c-1 -5 -11 -11 -22 -13 -27 -4 -48 -63 -26 -74 17 -10 20 -38 4
-38 -6 0 -38 19 -70 43 -74 53 -77 79 -9 88 63 9 125 6 123 -6z m-1765 -119
c-10 -7 -18 -19 -18 -25 0 -8 -7 -10 -19 -6 -26 8 -74 -12 -68 -29 8 -20 -4
-28 -20 -15 -25 22 -15 49 25 66 20 8 39 19 42 23 8 12 54 17 65 7 6 -5 4 -13
-7 -21z m1613 -11 c0 -5 -10 -12 -22 -15 -12 -3 -27 -14 -33 -23 -9 -15 -6
-23 18 -43 31 -28 63 -28 80 -2 8 13 8 23 -2 38 -17 27 -7 43 19 30 28 -16 25
-70 -6 -100 -20 -18 -31 -22 -62 -17 -41 7 -83 45 -83 76 0 31 40 72 66 69 14
-2 25 -7 25 -13z m-1571 -41 c0 -9 -5 -14 -12 -12 -18 6 -21 28 -4 28 9 0 16
-7 16 -16z m-40 -17 c0 -19 -90 -61 -103 -48 -13 13 -12 13 38 39 47 25 65 27
65 9z m70 -32 c0 -9 -6 -18 -14 -21 -9 -3 -12 -12 -9 -22 5 -12 2 -14 -11 -9
-26 10 -75 -21 -69 -44 7 -26 -14 -24 -28 3 -10 19 -8 25 17 45 16 13 32 23
37 23 4 0 7 7 7 16 0 9 6 14 13 11 8 -3 20 -1 28 4 20 13 29 11 29 -6z m-18
-113 c-55 -46 -32 -78 26 -35 29 22 52 24 52 4 0 -8 -84 -71 -94 -71 -3 0 -6
6 -6 13 0 7 -9 18 -20 25 -31 19 -24 53 17 85 26 19 40 24 47 17 8 -8 2 -19
-22 -38z m1426 -40 c2 -7 -5 -12 -17 -12 -11 0 -23 -5 -26 -11 -12 -19 2 -21
34 -5 39 21 48 20 61 -4 9 -17 6 -25 -19 -50 -18 -19 -35 -28 -45 -24 -22 8
-20 24 3 24 20 0 45 23 35 33 -4 3 -20 -1 -36 -9 -37 -19 -58 -12 -58 20 0 39
57 71 68 38z m-1278 -6 c0 -8 -4 -17 -10 -21 -5 -3 -6 -13 -3 -22 5 -12 2 -15
-9 -10 -21 8 -61 -35 -52 -56 8 -21 -19 -23 -36 -2 -13 16 -6 32 27 58 12 10
20 24 16 32 -3 10 1 15 15 15 12 0 24 5 27 10 9 15 25 12 25 -4z m1198 -84 c3
-9 -3 -13 -14 -12 -35 4 -44 0 -44 -18 0 -10 5 -23 12 -30 15 -15 48 -16 49
-2 1 6 2 15 3 22 2 18 23 21 29 4 9 -22 -31 -66 -59 -66 -52 0 -82 64 -47 102
19 21 64 21 71 0z m-1140 -8 c26 -18 30 -62 6 -71 -8 -3 -28 4 -44 15 -22 16
-29 18 -33 8 -7 -19 12 -36 41 -36 13 0 20 -4 17 -10 -10 -15 -46 -12 -67 7
-37 34 -9 103 42 103 9 0 26 -7 38 -16z m992 -19 c0 -8 -7 -15 -15 -15 -16 0
-20 12 -8 23 11 12 23 8 23 -8z m50 -70 c26 -38 29 -46 15 -51 -9 -4 -17 -5
-18 -3 -54 80 -60 99 -36 99 5 0 22 -20 39 -45z m-86 9 c26 -10 18 -24 -14
-24 -46 0 -36 -18 13 -22 35 -2 43 -7 45 -25 5 -31 -58 -63 -83 -43 -18 15
-12 24 18 25 38 0 28 20 -11 20 -30 0 -38 4 -40 22 -2 13 5 27 20 37 25 18 29
19 52 10z m-739 -36 c56 -25 35 -108 -28 -108 -42 0 -57 15 -57 56 0 23 7 38
22 48 27 19 30 19 63 4z m142 -4 c2 -6 -6 -15 -19 -18 -14 -5 -18 -9 -10 -13
16 -6 15 -23 -2 -23 -7 0 -17 -18 -22 -42 -6 -28 -15 -43 -24 -43 -11 0 -14 8
-11 25 3 14 5 39 5 55 1 17 10 40 21 53 20 23 55 26 62 6z m494 -75 c-3 -79
-12 -99 -42 -99 -24 0 -24 9 -1 26 19 14 18 15 -31 77 -42 52 -23 72 20 21
l33 -39 0 48 c0 35 4 47 13 44 8 -3 11 -25 8 -78z m-273 55 c42 -29 17 -84
-39 -84 -26 0 -29 -3 -29 -31 0 -24 -4 -30 -17 -27 -15 3 -19 16 -21 67 -2 35
-1 70 2 77 7 19 76 18 104 -2z m72 -11 c0 -21 3 -24 12 -15 18 18 56 14 67 -6
15 -28 18 -94 4 -99 -11 -4 -15 4 -27 60 -5 20 -12 27 -24 25 -13 -3 -17 -14
-17 -47 0 -48 -19 -66 -28 -29 -4 13 -9 50 -13 81 -6 49 -4 57 10 57 11 0 16
-9 16 -27z"/>
<path d="M1057 2194 c-16 -9 -27 -18 -24 -20 6 -7 54 13 62 25 9 15 -5 13 -38
-5z"/>
<path d="M973 2114 c-3 -8 -1 -20 6 -27 8 -8 11 -4 11 16 0 30 -7 35 -17 11z"/>
<path d="M1405 2137 c3 -7 -8 -27 -24 -45 -18 -19 -25 -32 -16 -32 7 0 23 12
34 26 22 28 28 64 11 64 -5 0 -7 -6 -5 -13z"/>
<path d="M1270 2089 c0 -5 5 -7 10 -4 6 3 10 8 10 11 0 2 -4 4 -10 4 -5 0 -10
-5 -10 -11z"/>
<path d="M697 2053 c-4 -3 -7 -11 -7 -17 0 -6 5 -5 12 2 6 6 9 14 7 17 -3 3
-9 2 -12 -2z"/>
<path d="M778 1990 c-24 -23 -23 -30 7 -30 18 0 25 5 25 19 0 27 -12 31 -32
11z"/>
<path d="M1658 2083 c7 -3 16 -2 19 1 4 3 -2 6 -13 5 -11 0 -14 -3 -6 -6z"/>
<path d="M1700 2073 c0 -12 -6 -24 -12 -26 -8 -4 -9 -6 -2 -6 20 -2 39 28 26
41 -9 9 -12 7 -12 -9z"/>
<path d="M510 1936 c0 -14 29 -31 38 -21 6 6 -18 35 -29 35 -5 0 -9 -6 -9 -14z"/>
<path d="M1830 1909 c0 -5 5 -7 10 -4 6 3 10 8 10 11 0 2 -4 4 -10 4 -5 0 -10
-5 -10 -11z"/>
<path d="M1926 1865 c4 -8 10 -12 15 -9 11 6 2 24 -11 24 -5 0 -7 -7 -4 -15z"/>
<path d="M965 1816 c-33 -32 -36 -38 -29 -73 13 -77 121 -213 169 -213 28 0
76 64 82 110 4 31 1 43 -23 70 -30 34 -34 38 -91 85 -18 15 -33 33 -33 41 0
25 -38 15 -75 -20z"/>
<path d="M1430 1514 c-36 -6 -99 -22 -140 -35 -51 -16 -101 -23 -157 -24 -45
0 -84 -3 -88 -7 -4 -4 -7 -19 -7 -33 0 -20 -13 -34 -57 -63 -31 -20 -91 -70
-135 -112 -160 -153 -184 -186 -166 -220 17 -31 57 -47 170 -64 58 -9 122 -25
142 -35 21 -10 35 -14 32 -9 -7 12 -100 58 -117 58 -16 0 -138 48 -150 59 -24
23 249 276 303 281 3 0 6 -71 7 -157 3 -223 10 -324 22 -336 6 -6 11 -25 11
-41 0 -25 -2 -28 -11 -16 -7 11 -8 6 -4 -19 5 -21 4 -31 -3 -27 -5 3 -15 -1
-22 -9 -17 -20 -8 -124 11 -136 18 -11 106 -12 113 0 3 5 1 33 -5 62 -6 30
-11 60 -12 67 0 6 -4 12 -9 12 -4 0 -8 17 -9 38 -1 20 -5 48 -9 62 l-8 25 -1
-27 c-1 -33 -20 -38 -22 -5 -2 37 1 47 22 68 11 11 18 27 15 36 -3 8 -3 20 1
26 4 7 9 3 14 -9 7 -17 8 -17 8 4 1 12 -5 22 -11 22 -9 0 -9 3 1 9 15 10 18
18 27 86 3 22 12 46 21 53 13 9 14 12 2 12 -12 0 -12 2 1 10 8 5 18 10 22 10
9 0 32 -71 30 -97 -1 -11 6 -24 15 -27 22 -9 28 0 13 18 -10 13 -8 22 10 50
l21 35 -21 21 c-16 16 -28 20 -50 15 -29 -6 -29 -6 -24 32 3 21 10 63 15 93 7
37 7 64 1 81 -13 32 -2 38 128 76 100 29 141 31 176 8 23 -14 25 -21 19 -52
-3 -20 -11 -44 -16 -54 -5 -11 -14 -28 -19 -39 -9 -17 -7 -20 12 -20 12 0 18
-3 14 -7 -4 -5 -11 -8 -15 -8 -16 0 -111 -68 -111 -80 0 -6 -18 -20 -40 -30
-54 -24 -57 -33 -12 -29 l37 2 -35 -18 c-45 -25 -37 -25 29 0 30 11 57 18 59
15 6 -6 -49 -55 -62 -55 -6 0 -3 -5 6 -11 13 -7 32 -6 65 5 83 25 136 56 195
114 46 45 56 61 52 79 -4 13 -1 30 5 37 17 21 -13 105 -55 155 -67 78 -128 97
-244 75z"/>
<path d="M1370 1000 c-13 -8 -13 -10 2 -10 9 0 20 5 23 10 8 13 -5 13 -25 0z"/>
<path d="M1161 788 c0 -31 3 -37 8 -24 7 18 3 66 -5 66 -2 0 -4 -19 -3 -42z"/>
<path d="M1611 751 c-7 -5 -11 -13 -7 -19 3 -6 -1 -15 -10 -20 -13 -7 -14 -13
-5 -31 22 -40 47 -18 48 42 1 39 -3 43 -26 28z m14 -59 c0 -18 -20 -15 -23 4
-3 10 1 15 10 12 7 -3 13 -10 13 -16z"/>
<path d="M1400 739 c0 -2 -4 -19 -9 -37 -5 -17 -6 -32 -1 -32 10 0 24 59 16
67 -3 4 -6 4 -6 2z"/>
<path d="M1444 715 c-4 -8 -1 -22 6 -30 9 -11 7 -19 -14 -40 -14 -14 -22 -25
-17 -25 21 0 86 91 74 104 -13 13 -21 5 -16 -15 4 -16 2 -20 -8 -17 -8 3 -13
13 -13 22 2 20 -5 21 -12 1z"/>
<path d="M1551 723 c-1 -7 -9 -21 -20 -32 -18 -18 -18 -18 8 -18 14 0 20 2 13
4 -10 4 -10 8 -1 19 6 7 9 19 6 26 -4 10 -6 10 -6 1z"/>
<path d="M490 1875 c0 -8 4 -15 10 -15 5 0 7 7 4 15 -4 8 -8 15 -10 15 -2 0
-4 -7 -4 -15z"/>
<path d="M335 1607 c4 -21 2 -27 -7 -22 -7 4 -2 -3 11 -15 24 -21 55 -24 54
-5 0 6 -11 15 -24 22 -13 7 -27 20 -31 30 -6 12 -6 8 -3 -10z"/>
<path d="M2125 1410 c3 -5 8 -10 11 -10 2 0 4 5 4 10 0 6 -5 10 -11 10 -5 0
-7 -4 -4 -10z"/>
<path d="M200 1406 c0 -9 7 -19 15 -23 25 -9 27 2 5 22 -18 17 -20 17 -20 1z"/>
<path d="M240 1336 c0 -2 7 -9 15 -16 13 -11 14 -10 9 4 -5 14 -24 23 -24 12z"/>
<path d="M2040 896 c0 -2 11 -11 24 -19 22 -15 24 -15 29 3 4 17 0 20 -24 20
-16 0 -29 -2 -29 -4z"/>
<path d="M624 438 c-4 -5 0 -14 7 -19 20 -13 29 -11 29 5 0 18 -27 29 -36 14z"/>
<path d="M834 296 c-7 -29 1 -46 21 -46 18 0 38 37 31 56 -9 24 -45 17 -52
-10z"/>
<path d="M1180 274 c0 -20 4 -25 16 -20 9 3 20 6 25 6 5 0 9 9 9 20 0 15 -7
20 -25 20 -20 0 -25 -5 -25 -26z"/>
</g>
</svg>
