<?xml version="1.0" standalone="no"?>
<!DOCTYPE svg PUBLIC "-//W3C//DTD SVG 20010904//EN"
 "http://www.w3.org/TR/2001/REC-SVG-20010904/DTD/svg10.dtd">
<svg version="1.0" xmlns="http://www.w3.org/2000/svg"
 width="1200.000000pt" height="1200.000000pt" viewBox="0 0 1200.000000 1200.000000"
 preserveAspectRatio="xMidYMid meet">

<g transform="translate(0.000000,1200.000000) scale(0.100000,-0.100000)"
fill="#000000" stroke="none">
<path d="M5660 11989 c-1873 -106 -3570 -1069 -4632 -2629 -886 -1300 -1219
-2937 -917 -4500 323 -1667 1343 -3120 2809 -4000 715 -429 1511 -703 2340
-804 276 -34 394 -40 735 -40 341 0 461 6 735 40 859 106 1662 387 2405 842
420 257 786 551 1155 928 896 916 1474 2100 1644 3365 41 308 51 455 51 814 0
359 -10 506 -51 814 -242 1800 -1305 3404 -2879 4341 -1016 605 -2208 896
-3395 829z m935 -428 c530 -62 982 -173 1450 -358 1672 -659 2933 -2094 3370
-3834 114 -456 165 -879 165 -1374 0 -721 -128 -1387 -393 -2060 -84 -212
-272 -594 -387 -785 -488 -810 -1137 -1460 -1940 -1944 -189 -114 -602 -317
-810 -399 -965 -379 -2017 -483 -3050 -301 -1834 322 -3420 1592 -4153 3324
-376 889 -515 1889 -397 2855 186 1517 978 2881 2205 3798 816 610 1774 982
2790 1081 239 24 243 24 620 21 275 -3 389 -8 530 -24z"/>
<path d="M5680 10689 c-178 -18 -368 -61 -710 -159 -113 -33 -288 -75 -390
-96 -307 -60 -386 -90 -632 -245 -174 -109 -181 -114 -328 -225 -53 -39 -194
-136 -315 -214 -361 -234 -514 -363 -734 -620 -133 -154 -182 -226 -273 -395
-36 -66 -102 -172 -147 -235 -94 -130 -172 -258 -288 -475 -45 -83 -102 -186
-127 -229 -119 -201 -190 -366 -241 -559 -66 -252 -90 -429 -105 -772 -5 -115
-19 -275 -30 -355 -18 -121 -21 -176 -17 -330 3 -102 12 -234 22 -295 17 -108
71 -334 119 -490 13 -44 31 -138 40 -210 26 -203 42 -255 146 -490 94 -214
143 -341 174 -456 21 -77 94 -184 223 -329 59 -67 136 -154 170 -193 41 -46
70 -89 83 -126 11 -31 27 -74 35 -96 27 -75 105 -195 173 -267 37 -39 159
-148 272 -241 113 -94 259 -220 325 -282 293 -272 430 -360 629 -402 168 -35
279 20 331 167 9 25 30 108 46 185 44 208 66 264 147 372 l24 33 -117 122
c-248 260 -361 358 -485 423 -49 25 -114 68 -144 96 -90 82 -410 527 -556 774
-46 77 -117 193 -157 258 -181 290 -216 382 -238 626 -18 201 -16 188 -75 441
-79 337 -75 302 -73 740 5 757 28 850 353 1425 62 110 146 264 186 343 82 162
113 206 239 342 121 131 196 225 282 357 87 134 119 161 350 287 87 48 218
131 293 186 250 185 358 253 480 302 109 45 320 126 495 190 139 51 241 68
430 69 94 0 208 4 254 7 l85 7 43 130 c23 72 43 131 43 133 0 1 11 2 24 2 27
0 30 -7 76 -157 l30 -101 88 -6 c409 -28 652 -69 932 -158 146 -47 188 -67
331 -159 120 -77 192 -115 430 -227 289 -138 463 -250 620 -399 101 -96 174
-206 318 -476 136 -254 143 -266 246 -397 188 -240 209 -291 260 -640 37 -250
65 -358 145 -550 119 -286 115 -251 102 -825 -12 -501 -18 -576 -62 -760 -43
-181 -104 -335 -219 -550 -35 -66 -90 -181 -122 -257 -120 -285 -231 -427
-524 -671 -281 -235 -445 -394 -617 -602 -36 -44 -81 -94 -100 -112 -47 -45
-143 -100 -208 -120 -30 -9 -57 -18 -59 -20 -2 -1 17 -22 43 -45 l47 -43 25
-175 c39 -277 72 -411 114 -471 25 -34 125 -78 203 -90 116 -17 261 7 362 59
94 49 232 187 362 362 144 194 172 218 489 410 127 77 255 193 335 306 67 93
132 212 251 461 87 185 136 263 290 474 126 172 183 285 260 509 66 194 83
309 98 665 5 132 17 325 25 428 35 423 36 803 4 994 -28 170 -71 314 -159 533
-84 210 -106 288 -150 530 -49 269 -85 392 -159 545 -112 233 -225 379 -468
608 -48 45 -84 97 -166 235 -232 392 -308 463 -787 737 -124 71 -274 168 -380
245 -316 231 -478 323 -680 388 -175 57 -258 73 -665 127 -104 13 -289 47
-410 74 -419 94 -630 116 -885 90z m410 -277 c28 -5 40 -10 33 -15 -7 -5 -13
-15 -13 -23 0 -20 186 -413 206 -435 17 -18 14 -19 -69 -19 -84 0 -98 5 -77
26 6 6 2 24 -9 50 -21 47 -42 54 -172 54 l-76 0 -24 -46 c-18 -34 -21 -48 -11
-51 45 -16 -51 -31 -106 -17 -21 6 -21 8 -8 23 9 10 63 109 121 221 75 143
103 206 96 213 -6 6 -11 15 -11 19 0 9 57 9 120 0z m482 -33 c81 -16 84 -17
65 -32 -10 -8 -28 -74 -51 -191 -20 -99 -35 -180 -33 -181 14 -11 294 -56 317
-52 35 7 36 4 19 -73 -11 -50 -22 -63 -32 -36 -4 9 -80 28 -231 57 -210 40
-252 52 -209 61 13 2 25 46 58 215 37 191 40 214 26 228 -14 13 -14 15 1 15
10 0 41 -5 70 -11z m-979 -21 c34 -1 33 -9 -3 -78 -21 -41 -30 -51 -35 -38
-19 47 -171 58 -245 18 -62 -35 -90 -80 -90 -145 0 -141 145 -201 304 -127 49
23 67 37 72 56 3 14 9 26 13 26 4 0 23 -19 41 -41 l33 -42 -24 -18 c-13 -11
-58 -36 -99 -57 -71 -35 -78 -37 -175 -37 -83 0 -107 4 -140 22 -86 46 -129
118 -129 213 0 100 45 171 141 219 67 33 111 41 213 35 52 -3 107 -6 123 -6z
m1575 -114 c59 -17 89 -34 59 -34 -10 0 -20 -13 -25 -32 -79 -288 -105 -400
-93 -407 29 -18 -8 -17 -78 2 -71 19 -73 21 -54 36 25 20 129 398 118 430 -8
26 0 26 73 5z m-2593 -94 c29 -57 31 -75 10 -66 -9 3 -79 -26 -159 -66 l-144
-72 24 -48 c13 -26 27 -48 29 -48 21 0 185 93 185 105 0 29 15 14 47 -44 33
-62 34 -78 2 -58 -16 10 -33 5 -104 -31 -47 -23 -85 -46 -85 -52 0 -5 17 -43
37 -85 26 -51 43 -75 55 -75 34 0 18 -16 -47 -48 -72 -35 -95 -41 -76 -18 10
12 -7 53 -89 210 -68 132 -107 196 -118 196 -27 0 -5 13 195 116 120 62 194
105 196 116 8 28 15 22 42 -32z m3070 -75 c122 -52 186 -74 202 -70 28 7 28 6
1 -58 -27 -66 -24 -63 -45 -40 -15 17 -269 133 -292 133 -4 0 -16 -22 -28 -49
l-21 -50 95 -41 c56 -24 103 -38 114 -35 21 7 21 6 -18 -85 l-20 -45 -14 29
c-10 20 -35 37 -94 62 -44 19 -84 33 -90 30 -18 -6 -76 -159 -65 -170 17 -17
11 -28 -11 -21 -12 4 -46 18 -76 31 -54 24 -54 25 -34 42 27 23 182 393 170
408 -13 16 0 24 25 14 11 -4 102 -42 201 -85z m-2736 -61 c27 -35 26 -59 -4
-89 -63 -63 -160 18 -105 88 29 37 80 37 109 1z m3303 -188 c66 -33 127 -93
160 -156 18 -35 23 -61 23 -116 0 -95 -35 -155 -115 -197 -50 -26 -62 -28
-130 -25 -298 18 -441 384 -197 507 63 33 181 27 259 -13z m-4157 -31 c37 -15
90 -66 111 -107 64 -124 -14 -291 -174 -370 -57 -28 -76 -33 -143 -33 -67 0
-82 4 -125 30 -63 39 -103 104 -111 177 -5 46 -1 65 22 116 72 160 272 249
420 187z m4752 -383 c153 -128 178 -160 178 -222 0 -97 -86 -158 -178 -127
l-45 15 -7 -104 c-4 -57 -5 -113 -2 -124 8 -30 -6 -25 -72 31 -58 48 -78 75
-47 63 11 -4 16 8 20 53 4 32 9 79 11 104 5 46 4 48 -44 88 -27 23 -51 41 -53
41 -3 0 -28 -29 -56 -64 -34 -42 -50 -69 -46 -80 10 -26 -5 -19 -67 32 -59 47
-74 68 -41 58 13 -4 50 34 155 159 80 96 137 172 134 179 -8 21 4 28 22 14 9
-7 71 -59 138 -116z m-5590 -113 c-3 -11 5 -90 18 -175 l23 -154 57 -64 c31
-36 65 -66 76 -68 17 -2 11 -12 -36 -58 -43 -43 -55 -50 -55 -34 0 11 -27 47
-62 81 l-63 62 -144 26 c-80 15 -157 25 -173 23 -15 -3 -28 -1 -28 3 0 9 117
122 132 128 7 2 9 -3 5 -12 -7 -19 4 -23 116 -46 l87 -19 -5 32 c-3 17 -10 62
-15 100 -13 80 -16 87 -35 79 -8 -3 -15 -2 -15 1 0 7 111 115 119 116 2 0 1
-9 -2 -21z m313 -39 c42 -42 7 -120 -53 -120 -54 0 -87 81 -50 122 22 24 77
24 103 -2z m5724 -284 c51 -70 53 -76 31 -76 -8 0 -15 -3 -15 -7 0 -5 -15 -93
-34 -198 -19 -104 -33 -191 -32 -192 6 -7 230 165 234 179 7 28 16 22 56 -34
32 -46 34 -53 19 -57 -28 -5 -363 -253 -363 -268 0 -26 -18 -12 -59 47 -38 54
-41 64 -19 61 8 -1 8 -1 48 223 17 93 30 175 28 182 -4 16 -243 -155 -243
-174 0 -26 -16 -15 -50 32 -39 55 -42 66 -19 66 23 0 364 249 364 266 0 23 7
17 54 -50z m-6443 -123 c52 -41 59 -53 32 -53 -17 0 -114 -110 -112 -127 1
-13 271 -226 288 -228 26 -2 22 -17 -17 -67 -38 -51 -47 -56 -55 -34 -6 14
-268 234 -286 238 -14 5 -110 -122 -104 -138 9 -23 -6 -17 -60 26 -46 37 -49
41 -29 47 32 8 294 336 286 357 -9 24 3 20 57 -21z m6859 -475 c46 -82 46 -81
21 -73 -16 5 -67 -20 -206 -100 -109 -63 -185 -113 -185 -122 0 -28 -21 -7
-57 56 -28 49 -32 63 -18 57 25 -9 394 202 395 227 0 31 15 18 50 -45z m-7260
-13 c0 -23 355 -256 377 -248 20 8 22 13 -45 -89 -24 -37 -50 -52 -38 -23 7
18 -327 248 -364 250 -31 2 -31 2 16 75 36 55 54 67 54 35z m-116 -300 c31
-47 34 -55 18 -55 -33 0 -100 -58 -132 -112 -24 -41 -30 -63 -28 -98 3 -38 6
-45 26 -48 32 -5 46 9 117 119 89 136 142 164 226 117 53 -29 73 -75 66 -150
-7 -83 -63 -195 -127 -258 -27 -27 -50 -53 -50 -59 0 -22 -18 -10 -54 36 l-37
48 27 7 c39 10 103 75 130 133 30 64 32 130 4 145 -27 15 -50 1 -80 -49 -100
-166 -144 -211 -205 -211 -18 0 -47 10 -66 23 -109 73 -84 228 62 394 35 40
64 72 65 73 1 0 18 -25 38 -55z m7311 -95 c211 -17 231 -17 242 -3 7 9 15 14
18 12 11 -11 54 -139 47 -140 -4 -1 -14 -1 -23 0 -18 2 -319 -326 -332 -361
-9 -26 -10 -26 -41 51 -29 72 -32 96 -12 88 14 -6 76 51 76 70 0 6 -16 54 -36
106 -38 101 -44 107 -111 107 -18 0 -33 -4 -33 -10 0 -26 -19 -5 -39 41 -26
63 -26 73 -3 64 9 -4 121 -15 247 -25z m-7539 -470 c44 -22 74 -72 74 -125 l0
-25 97 35 c53 20 105 43 115 52 17 15 18 15 18 -2 0 -18 -29 -135 -36 -147 -3
-4 -13 -3 -22 3 -13 8 -39 2 -106 -23 l-89 -33 -18 -63 c-13 -47 -15 -64 -6
-67 110 -35 167 -43 167 -23 0 8 3 9 10 2 7 -7 7 -20 1 -40 -6 -16 -15 -48
-21 -71 -10 -41 -30 -59 -30 -29 0 16 -13 20 -264 87 -128 34 -160 39 -167 28
-4 -7 -11 -10 -15 -7 -9 10 72 311 101 375 40 88 107 113 191 73z m7822 -126
c16 -11 22 -25 22 -54 0 -29 -6 -43 -22 -54 -34 -24 -73 -20 -97 10 -27 34
-27 62 1 91 25 27 64 30 96 7z m320 -467 c45 -184 50 -238 28 -291 -29 -70
-114 -90 -165 -38 l-28 28 -14 -40 c-16 -47 -67 -86 -112 -86 -41 0 -89 32
-114 77 -21 38 -116 393 -107 402 2 3 9 0 15 -6 7 -7 64 3 187 34 258 64 252
62 252 78 0 8 4 15 8 15 4 0 27 -78 50 -173z m-8407 -27 c28 0 42 -24 20 -32
-10 -3 -53 -309 -45 -317 2 -3 27 -7 54 -11 57 -7 55 -10 65 90 4 36 9 72 11
81 3 9 -2 24 -11 32 -26 26 -17 30 53 22 77 -8 94 -15 65 -26 -23 -8 -29 -31
-39 -141 l-6 -75 57 -7 c32 -3 59 -5 61 -3 10 9 41 313 33 322 -24 24 -8 32
53 23 68 -9 80 -15 58 -28 -10 -6 -22 -71 -41 -225 -15 -119 -29 -218 -32
-221 -3 -3 -13 -1 -24 5 -29 16 -426 60 -440 48 -18 -13 -17 7 12 239 16 128
21 202 15 208 -19 19 -10 28 21 22 17 -3 44 -6 60 -6z m8519 -543 c0 -104 23
-404 32 -415 15 -17 11 -19 -54 -27 -39 -5 -58 -4 -58 3 0 6 5 14 10 17 10 6
7 144 -6 273 l-5 52 -56 0 -55 0 7 -102 c5 -70 11 -107 21 -114 25 -20 15 -24
-56 -24 -71 0 -81 4 -55 24 12 9 14 28 8 109 l-6 97 -64 0 -63 0 5 -67 c3 -38
8 -112 11 -165 3 -54 10 -100 15 -104 24 -15 3 -24 -57 -24 -58 0 -65 2 -54
15 10 12 10 60 1 236 -12 207 -10 250 7 222 9 -14 431 4 447 18 17 17 25 9 25
-24z m-8416 -156 c123 -48 217 -79 228 -75 15 4 18 0 18 -24 0 -16 3 -49 6
-74 6 -44 6 -45 -22 -45 -36 -1 -402 -193 -427 -224 -10 -12 -19 -20 -21 -18
-8 10 -15 159 -7 164 5 3 11 -1 14 -7 3 -9 52 11 153 63 82 43 150 81 151 86
3 7 -291 133 -311 133 -3 0 -6 -7 -6 -15 0 -8 -4 -15 -9 -15 -11 0 -25 145
-16 160 4 7 13 3 23 -9 9 -11 111 -56 226 -100z m7958 -453 c3 -9 68 -18 219
-29 191 -14 215 -14 226 -1 7 9 16 13 19 9 10 -9 -16 -338 -31 -392 -8 -28
-25 -61 -39 -74 -70 -66 -205 -30 -222 59 -4 17 -10 33 -14 35 -11 7 -181 -95
-187 -112 -3 -7 -10 -13 -15 -13 -7 0 -9 28 -5 81 5 83 12 103 27 80 6 -11 26
-2 93 38 91 56 97 65 97 143 l0 46 -82 4 c-63 3 -86 0 -95 -11 -7 -8 -15 -13
-17 -10 -7 8 7 159 14 159 5 0 10 -6 12 -12z m-7678 -119 c7 -70 2 -96 -13
-70 -13 20 -431 -25 -448 -48 -15 -21 -19 -9 -27 77 -5 60 -1 72 20 53 5 -5
61 -2 129 5 66 8 163 18 215 23 52 6 96 15 98 21 10 28 20 3 26 -61z m35 -247
c15 -71 14 -82 -6 -82 -12 -1 -61 -62 -135 -168 -64 -92 -115 -168 -113 -170
9 -9 291 53 302 67 17 20 19 16 32 -58 11 -68 9 -80 -11 -64 -16 12 -418 -65
-441 -85 -13 -11 -17 -6 -27 45 -6 32 -14 68 -17 81 -4 17 -1 22 14 22 12 0
54 51 131 161 63 88 112 162 110 164 -8 8 -274 -49 -284 -61 -18 -22 -22 -17
-33 36 -15 70 -14 95 2 82 16 -13 439 69 445 87 7 21 19 -1 31 -57z m7589
-274 c6 -6 105 -33 219 -60 166 -38 209 -45 221 -35 13 10 14 7 8 -28 -4 -22
-12 -58 -18 -80 -8 -34 -12 -37 -22 -23 -11 15 -162 55 -172 45 -3 -3 19 -57
50 -121 45 -96 58 -116 76 -116 15 0 20 -5 17 -14 -3 -8 -13 -50 -23 -95 -10
-45 -21 -81 -26 -81 -4 0 -8 5 -8 10 0 10 -116 259 -125 268 -6 6 -277 -137
-302 -161 -13 -11 -26 -18 -29 -15 -3 3 2 42 12 87 16 73 19 80 38 75 14 -3
57 15 126 52 58 31 107 58 109 60 2 1 -7 22 -20 45 -22 39 -29 44 -83 56 -33
7 -68 11 -78 7 -21 -6 -22 0 -6 78 13 61 16 66 36 46z m-7516 -357 c71 -27
147 -172 156 -297 8 -122 -13 -143 -218 -217 -168 -61 -160 -57 -160 -74 0
-33 -24 -3 -46 57 -28 78 -28 73 -6 66 24 -8 291 90 320 116 31 30 30 96 -4
168 -27 59 -57 89 -89 90 -11 0 -85 -23 -164 -52 -103 -37 -145 -57 -149 -70
-8 -30 -16 -21 -40 45 -26 74 -27 81 -6 73 9 -3 78 16 153 43 75 27 143 51
151 54 24 9 77 8 102 -2z m7348 -283 c0 -14 348 -209 387 -218 21 -5 17 -16
-82 -195 -58 -104 -104 -199 -103 -210 4 -25 -11 -22 -70 12 -38 23 -42 28
-26 34 11 3 43 51 73 105 30 55 65 118 78 140 l24 42 -47 26 c-26 15 -51 23
-55 19 -4 -5 -26 -41 -49 -82 -33 -57 -41 -80 -36 -103 3 -16 2 -28 -2 -26
-40 18 -112 60 -117 68 -3 5 3 10 14 10 26 0 125 174 108 188 -17 14 -99 54
-101 50 -33 -46 -146 -273 -146 -292 l0 -27 -60 32 c-54 28 -69 49 -37 49 7 0
61 88 120 195 99 178 127 218 127 183z m-7183 -400 c29 -27 29 -65 1 -95 -43
-46 -118 -16 -118 47 0 62 71 92 117 48z m273 -98 c0 -11 56 -101 125 -199 69
-98 125 -181 125 -185 0 -3 -8 -6 -18 -6 -21 0 -329 -211 -358 -247 l-21 -25
-126 180 c-84 118 -134 182 -149 185 -21 6 -18 9 27 42 58 41 65 42 65 14 0
-18 168 -268 181 -269 3 0 24 14 47 31 l42 31 -32 46 c-59 87 -90 123 -104
118 -7 -3 -16 -1 -18 3 -7 10 109 93 118 84 3 -3 1 -12 -5 -19 -9 -11 0 -30
35 -81 81 -118 68 -110 123 -72 26 18 50 33 52 35 8 7 -184 267 -201 272 -27
7 -23 14 30 49 56 38 62 39 62 13z m6618 -25 c-2 -9 70 -66 176 -140 140 -97
182 -122 193 -114 27 23 13 -13 -28 -72 -42 -59 -63 -74 -57 -42 3 16 -27 40
-234 186 l-67 47 -90 -129 c-50 -71 -91 -139 -91 -150 0 -27 -1 -27 -60 12
-55 35 -59 42 -31 50 10 2 76 88 147 190 115 165 151 206 142 162z m-6208
-547 c0 -4 -8 -8 -17 -8 -10 -1 -47 -27 -82 -60 l-64 -58 99 -111 98 -110 26
22 c71 61 110 103 110 116 0 9 21 -5 50 -34 53 -52 60 -65 34 -65 -21 0 -328
-280 -332 -303 -3 -17 -11 -12 -53 29 -49 49 -58 64 -38 64 15 0 119 88 126
106 3 8 -37 59 -92 119 l-98 105 -56 -52 c-31 -29 -57 -61 -59 -70 -2 -10 -5
-18 -7 -18 -6 0 -89 90 -93 101 -2 5 3 9 10 9 21 0 338 289 338 308 0 11 17
-1 50 -33 28 -27 50 -53 50 -57z m5842 53 c4 -24 287 -332 299 -326 4 3 10 2
13 -3 3 -5 -67 -75 -154 -156 -98 -91 -160 -156 -160 -167 0 -27 -9 -24 -52
18 -41 40 -47 53 -24 53 16 0 241 204 241 218 0 5 -15 26 -33 46 l-33 38 -75
-68 c-55 -49 -74 -72 -71 -86 10 -36 -12 -27 -58 24 l-47 53 32 6 c21 5 55 29
96 70 l63 63 -36 40 c-20 23 -40 42 -44 44 -12 5 -239 -213 -239 -230 0 -28
-16 -21 -54 24 -40 47 -44 58 -18 58 9 1 89 68 177 150 88 83 163 150 167 150
4 0 8 -9 10 -19z m-538 -590 l46 -60 143 -45 c78 -25 158 -46 177 -48 l35 -3
-76 -57 c-79 -60 -95 -68 -85 -43 3 10 -4 20 -22 29 -25 12 -154 56 -167 56
-7 0 -6 -175 1 -194 3 -9 12 -16 20 -16 28 0 15 -14 -75 -82 l-36 -26 0 181 0
182 -50 67 c-28 37 -58 67 -67 68 -29 0 -20 13 40 57 57 41 57 41 63 18 4 -13
28 -51 53 -84z m-4783 27 c38 -31 48 -44 36 -46 -15 -3 -247 -280 -247 -295 0
-14 122 -106 135 -100 8 3 15 1 15 -4 0 -17 -72 -103 -81 -97 -5 3 -7 9 -4 14
9 15 -333 293 -352 286 -27 -11 -19 12 23 59 29 33 44 44 44 33 0 -16 111
-118 128 -118 14 0 232 277 232 294 0 24 13 20 71 -26z m4506 -350 c47 -44 20
-118 -44 -118 -68 0 -99 78 -47 119 34 27 62 27 91 -1z m-4293 1 c13 -7 30
-25 37 -41 34 -82 -85 -137 -126 -58 -13 26 -14 35 -3 57 7 15 24 33 38 40 30
15 24 15 54 2z"/>
<path d="M5991 10205 c-22 -42 -41 -78 -41 -81 0 -2 34 -4 75 -4 41 0 75 2 75
5 0 9 -53 140 -60 148 -4 5 -26 -26 -49 -68z"/>
<path d="M8010 9753 c-19 -10 -45 -34 -58 -53 -52 -76 -7 -198 91 -248 96 -50
186 -35 235 38 32 47 27 121 -11 179 -54 81 -182 123 -257 84z"/>
<path d="M3832 9694 c-176 -87 -149 -314 37 -314 144 0 259 145 205 257 -42
84 -141 108 -242 57z"/>
<path d="M8660 9345 c-19 -25 -35 -49 -35 -54 0 -14 147 -131 171 -137 63 -16
104 30 74 83 -15 27 -154 153 -167 153 -5 -1 -24 -21 -43 -45z"/>
<path d="M9607 7823 c14 -37 28 -70 30 -72 2 -3 30 22 63 54 40 40 56 61 47
66 -6 3 -47 9 -89 13 l-77 7 26 -68z"/>
<path d="M1955 7390 c-15 -16 -80 -219 -72 -225 12 -11 121 -34 127 -28 10 11
50 176 50 205 0 60 -67 90 -105 48z"/>
<path d="M10060 6916 c-25 -7 -44 -17 -44 -22 9 -64 51 -201 69 -222 20 -24
25 -25 49 -14 15 6 29 19 33 28 7 19 -45 245 -55 243 -4 -1 -27 -7 -52 -13z"/>
<path d="M9863 6867 c-23 -7 -44 -15 -48 -18 -10 -11 42 -201 63 -228 39 -53
102 -30 102 38 0 20 -10 78 -22 129 -24 100 -22 99 -95 79z"/>
<path d="M10106 5574 c-11 -38 -10 -209 2 -231 15 -28 53 -39 81 -24 25 14 38
60 46 174 7 82 6 87 -12 87 -11 0 -41 3 -66 6 -38 6 -46 4 -51 -12z"/>
<path d="M4355 3084 c-34 -18 -54 -43 -55 -68 0 -11 32 -51 75 -92 41 -41 77
-85 81 -99 9 -38 -18 -100 -95 -214 -56 -83 -75 -124 -114 -239 -89 -264 -109
-389 -67 -427 54 -49 169 53 327 289 62 92 71 114 111 251 24 83 52 169 62
193 l19 43 48 -8 c27 -4 72 -8 102 -7 61 1 91 25 91 73 0 43 -17 51 -106 51
-155 0 -268 52 -332 152 -64 101 -101 126 -147 102z"/>
<path d="M7491 2986 l-106 -103 -141 -5 c-183 -7 -218 -23 -200 -93 9 -35 50
-45 164 -43 99 3 104 2 123 -21 18 -22 19 -34 13 -101 -9 -106 9 -159 107
-321 45 -74 109 -183 142 -244 33 -60 66 -118 75 -127 21 -24 67 -23 93 3 19
19 21 29 16 78 -10 91 -35 286 -59 441 l-21 145 -93 92 c-74 72 -94 99 -100
129 -8 41 -17 29 120 150 35 31 46 47 46 70 0 36 -16 54 -48 54 -17 0 -55 -30
-131 -104z"/>
<path d="M7651 2892 c-55 -50 -73 -73 -68 -85 10 -27 58 -21 141 19 83 40 83
39 29 102 l-28 33 -74 -69z"/>
<path d="M4203 2906 l-22 -34 52 -55 c67 -70 91 -78 126 -43 21 21 24 30 15
44 -11 17 -134 122 -144 122 -3 0 -15 -16 -27 -34z"/>
<path d="M7080 2658 c1 -64 6 -68 94 -68 88 0 106 8 106 47 0 32 -33 43 -126
43 -70 0 -74 -1 -74 -22z"/>
<path d="M4727 2643 c-4 -3 -7 -21 -7 -39 0 -47 26 -58 119 -50 42 3 78 11 83
19 12 19 9 57 -4 61 -26 8 -185 16 -191 9z"/>
<path d="M6925 2513 c-11 -2 -112 -35 -225 -73 -257 -87 -302 -93 -637 -88
-283 5 -280 5 -794 118 l-176 39 -109 -15 c-102 -15 -229 -15 -265 0 -13 6
-19 -9 -37 -78 -25 -105 -61 -178 -112 -231 -65 -68 -179 -226 -217 -302 -45
-91 -48 -151 -9 -217 52 -89 112 -112 335 -126 194 -12 397 -47 611 -105 312
-84 443 -106 635 -107 176 -2 276 17 645 117 83 23 125 27 330 35 241 9 304
16 425 52 97 28 155 60 198 107 87 97 70 227 -59 452 -191 331 -194 336 -194
380 0 33 -3 37 -31 43 -35 7 -282 6 -314 -1z m-1755 -313 c37 -10 42 -14 29
-24 -22 -16 -121 -446 -107 -463 14 -17 0 -16 -75 2 -69 16 -76 21 -55 38 10
7 30 74 52 169 19 87 38 169 42 183 6 23 4 25 -30 25 -22 0 -36 5 -36 13 0 14
109 76 125 71 5 -1 30 -8 55 -14z m1712 -46 c62 -32 76 -117 28 -166 -36 -36
-37 -38 -6 -38 55 0 105 -77 91 -140 -18 -81 -124 -140 -266 -148 -75 -4 -93
-2 -132 17 -86 41 -101 135 -33 198 l36 33 -35 14 c-36 15 -65 59 -65 98 0 13
9 38 20 56 49 80 265 125 362 76z m-1300 -25 c110 -24 168 -72 168 -141 0 -30
-7 -46 -29 -69 -16 -16 -37 -29 -46 -29 -10 0 -2 -13 25 -38 35 -34 40 -44 40
-85 0 -53 -34 -101 -87 -123 -45 -19 -190 -18 -250 2 -102 34 -153 100 -133
173 12 45 35 68 86 86 34 11 35 13 15 20 -25 8 -61 60 -61 88 0 11 8 35 17 54
30 65 129 89 255 62z m-742 -39 c11 -11 20 -33 20 -50 0 -17 -9 -39 -20 -50
-11 -11 -33 -20 -50 -20 -17 0 -39 9 -50 20 -11 11 -20 33 -20 50 0 17 9 39
20 50 11 11 33 20 50 20 17 0 39 -9 50 -20z m1463 -3 l66 -23 -25 -45 c-14
-24 -27 -45 -29 -47 -2 -2 -13 6 -25 18 -30 30 -63 40 -128 40 -39 0 -67 -6
-89 -20 -34 -20 -63 -66 -63 -98 0 -18 4 -17 73 6 83 28 141 26 207 -8 58 -29
82 -72 77 -136 -7 -103 -98 -169 -232 -169 -155 1 -246 106 -233 270 16 188
196 284 401 212z m926 -23 c12 -15 21 -34 21 -44 0 -10 -9 -29 -21 -44 -40
-51 -122 -22 -122 44 0 66 82 95 122 44z"/>
<path d="M6686 2089 c-71 -17 -98 -66 -59 -105 14 -13 29 -15 80 -11 89 9 123
28 123 72 0 53 -45 67 -144 44z"/>
<path d="M6708 1887 c-56 -18 -78 -41 -78 -81 0 -25 7 -39 22 -50 43 -31 171
-13 219 30 19 17 25 59 11 80 -22 34 -102 43 -174 21z"/>
<path d="M5438 2049 c-11 -6 -18 -22 -18 -39 0 -46 37 -64 128 -65 70 0 77 2
88 24 28 54 -22 90 -126 90 -30 0 -63 -4 -72 -10z"/>
<path d="M5392 1837 c-29 -30 -28 -62 2 -92 28 -28 70 -37 150 -33 50 3 62 7
79 30 47 63 -20 117 -144 118 -56 0 -69 -3 -87 -23z"/>
<path d="M6096 1850 c-46 -14 -66 -39 -66 -81 0 -53 35 -79 107 -79 30 0 67 7
83 15 49 25 53 100 7 129 -29 20 -95 27 -131 16z"/>
</g>
</svg>
