<?xml version="1.0" standalone="no"?>
<!DOCTYPE svg PUBLIC "-//W3C//DTD SVG 20010904//EN"
 "http://www.w3.org/TR/2001/REC-SVG-20010904/DTD/svg10.dtd">
<svg version="1.0" xmlns="http://www.w3.org/2000/svg"
 width="2560.000000pt" height="1324.000000pt" viewBox="0 0 2560.000000 1324.000000"
 preserveAspectRatio="xMidYMid meet">

<g transform="translate(0.000000,1324.000000) scale(0.100000,-0.100000)"
fill="#000000" stroke="none">
<path d="M0 6620 l0 -6620 1395 0 1395 0 0 6620 0 6620 -1395 0 -1395 0 0
-6620z"/>
<path d="M4550 8735 l0 -4505 1395 0 1395 0 0 4505 0 4505 -1395 0 -1395 0 0
-4505z"/>
<path d="M9090 6620 l0 -6620 1395 0 1395 0 0 6620 0 6620 -1395 0 -1395 0 0
-6620z"/>
<path d="M13640 11925 l0 -1315 1395 0 1395 0 0 1315 0 1315 -1395 0 -1395 0
0 -1315z"/>
<path d="M18260 11925 l0 -1315 3670 0 3670 0 0 1315 0 1315 -3670 0 -3670 0
0 -1315z"/>
<path d="M18260 4505 l0 -4505 1395 0 1395 0 0 4505 0 4505 -1395 0 -1395 0 0
-4505z"/>
</g>
</svg>
