<?xml version="1.0" standalone="no"?>
<!DOCTYPE svg PUBLIC "-//W3C//DTD SVG 20010904//EN"
 "http://www.w3.org/TR/2001/REC-SVG-20010904/DTD/svg10.dtd">
<svg version="1.0" xmlns="http://www.w3.org/2000/svg"
 width="472.000000pt" height="303.000000pt" viewBox="0 0 472.000000 303.000000"
 preserveAspectRatio="xMidYMid meet">

<g transform="translate(0.000000,303.000000) scale(0.100000,-0.100000)"
fill="#000000" stroke="none">
<path d="M2258 2943 c34 -2 90 -2 125 0 34 2 6 3 -63 3 -69 0 -97 -1 -62 -3z"/>
<path d="M2108 2933 c12 -2 30 -2 40 0 9 3 -1 5 -23 4 -22 0 -30 -2 -17 -4z"/>
<path d="M2488 2933 c12 -2 30 -2 40 0 9 3 -1 5 -23 4 -22 0 -30 -2 -17 -4z"/>
<path d="M2048 2923 c7 -3 16 -2 19 1 4 3 -2 6 -13 5 -11 0 -14 -3 -6 -6z"/>
<path d="M1965 2910 l-20 -9 20 0 c11 0 29 4 40 9 l20 9 -20 0 c-11 0 -29 -4
-40 -9z"/>
<path d="M2630 2910 c34 -11 60 -11 35 0 -11 5 -29 8 -40 8 -16 0 -15 -2 5 -8z"/>
<path d="M2093 2895 c-212 -33 -494 -154 -626 -269 -12 -10 -37 -30 -55 -44
-83 -64 -223 -225 -295 -340 -45 -73 -110 -211 -137 -292 -96 -290 -91 -651
13 -930 72 -195 179 -362 322 -505 117 -118 147 -142 263 -213 161 -97 276
-143 477 -188 113 -25 407 -25 520 0 183 41 352 107 485 188 52 32 189 140
236 185 60 59 165 188 216 268 50 78 129 251 152 335 73 258 75 528 8 800 -24
96 -113 287 -180 388 -105 158 -288 340 -407 406 -16 9 -46 26 -65 38 -143 85
-334 151 -517 178 -95 13 -308 11 -410 -5z m175 -108 c3 -31 -1 -39 -20 -46
l-23 -10 25 0 c19 -1 25 -7 26 -26 2 -22 -2 -25 -30 -26 -17 0 -59 -2 -94 -5
l-63 -6 7 27 c4 18 2 30 -7 35 -10 7 -10 11 0 24 11 13 11 19 1 31 -8 10 -9
19 -4 25 10 10 77 17 139 16 39 -1 40 -2 43 -39z m167 21 c-4 -13 -10 -47 -12
-75 -4 -45 -8 -53 -25 -53 -18 0 -20 5 -16 45 3 25 2 45 -3 45 -5 0 -9 7 -9
15 0 8 7 15 15 15 9 0 18 7 21 15 4 8 13 15 21 15 11 0 13 -6 8 -22z m57 -25
c3 -42 21 -48 26 -8 2 14 10 25 18 25 11 0 14 -10 12 -37 -3 -35 -6 -38 -35
-41 -51 -5 -35 -32 18 -32 10 0 19 -5 19 -11 0 -6 -20 -9 -52 -7 -50 3 -52 4
-61 38 -6 23 -5 36 2 38 6 2 11 12 11 22 0 58 37 69 42 13z m-514 -45 c9 -28
10 -44 3 -46 -5 -2 -8 -9 -5 -17 3 -8 12 -11 20 -8 8 3 14 -1 14 -10 0 -8 -12
-18 -26 -21 -30 -8 -30 -8 -44 24 l-10 25 5 -26 c5 -28 -13 -52 -37 -48 -27 3
-38 -1 -38 -16 0 -21 -26 -19 -33 3 -3 9 -14 41 -25 69 -11 29 -17 55 -14 57
4 2 23 7 42 11 19 4 44 13 56 20 11 7 31 15 45 18 13 2 26 5 29 6 3 0 11 -18
18 -41z m763 11 c13 -13 27 -18 40 -14 14 5 28 -1 46 -19 26 -26 25 -29 -12
-28 -17 1 -17 0 -2 -4 26 -8 21 -31 -10 -48 -24 -12 -26 -15 -10 -21 20 -9 23
-35 3 -35 -8 0 -21 7 -30 15 -8 8 -26 15 -40 15 -32 0 -45 20 -17 27 14 4 20
12 19 29 -3 31 -16 31 -28 -1 -12 -31 -32 -40 -57 -27 -17 10 -17 11 0 18 13
5 15 9 7 14 -8 5 -4 16 15 34 20 20 24 30 16 40 -24 28 32 33 60 5z m-1057
-95 c10 -4 16 -18 16 -36 0 -23 4 -29 15 -24 9 3 15 0 15 -10 0 -8 -7 -17 -15
-20 -10 -4 -13 -14 -9 -29 5 -19 -2 -28 -41 -50 -49 -29 -75 -26 -37 5 12 10
28 20 35 23 6 2 9 8 5 12 -3 4 -24 -5 -45 -19 -45 -31 -53 -32 -53 -6 0 10 -9
24 -20 30 -29 15 -21 55 11 55 14 0 24 6 24 15 0 9 11 16 26 18 17 2 29 11 32
23 5 20 15 23 41 13z m1341 -34 c18 0 25 -5 25 -20 0 -11 3 -20 8 -21 48 -5
59 -14 42 -34 -11 -13 -15 -13 -29 -2 -28 24 -39 28 -47 15 -4 -7 -4 -10 1 -6
17 16 34 -12 25 -43 -5 -17 -6 -37 -3 -46 4 -11 1 -14 -13 -11 -15 3 -19 12
-18 48 1 43 1 43 -17 22 -9 -12 -19 -28 -22 -35 -3 -9 -9 -8 -21 3 -15 15 -14
19 9 50 33 45 32 50 -4 16 -23 -22 -35 -27 -56 -22 -15 4 -24 12 -22 19 2 7
10 11 17 9 7 -2 23 6 35 18 14 13 29 18 41 14 19 -6 19 -5 0 10 -10 8 -23 17
-29 19 -6 2 -7 9 -3 16 6 9 13 9 32 -3 13 -9 35 -16 49 -16z m-470 -44 c276
-62 532 -239 679 -470 249 -389 235 -885 -36 -1253 -51 -70 -161 -183 -177
-183 -25 0 -8 28 50 85 78 78 136 159 192 270 46 94 87 202 87 233 0 9 -14
-22 -30 -70 -55 -164 -137 -302 -245 -413 -62 -65 -65 -67 -97 -57 -18 6 -87
22 -153 37 -109 24 -226 59 -390 115 -131 44 -335 142 -425 203 -25 17 -61 42
-81 55 -48 32 -201 190 -236 244 -15 24 -31 45 -34 48 -3 3 -14 21 -24 40 -23
45 -16 38 30 -30 35 -51 153 -175 219 -229 190 -155 560 -315 941 -405 148
-36 155 -37 155 -32 0 20 -56 97 -73 100 -147 30 -190 42 -357 97 -138 45
-225 76 -248 89 -9 4 -73 36 -142 70 -69 33 -138 69 -155 80 -16 11 -45 28
-64 38 -52 29 -201 160 -252 221 -63 76 -112 158 -105 176 9 25 19 17 56 -42
156 -250 532 -474 1035 -618 33 -9 80 -23 105 -30 25 -7 62 -16 83 -19 21 -4
45 -10 53 -13 9 -3 1 17 -18 50 -28 47 -39 57 -68 62 -19 3 -55 12 -80 20 -25
7 -79 23 -120 35 -255 76 -450 156 -604 250 -96 59 -126 82 -219 175 -47 47
-127 158 -127 176 0 22 169 85 315 118 124 28 296 43 537 48 l256 6 37 37 37
38 -116 7 c-118 8 -491 -9 -556 -25 -19 -4 -57 -11 -85 -15 -122 -16 -297 -68
-442 -132 -8 -3 -13 3 -13 16 0 16 12 27 48 42 242 106 659 169 1028 157 l154
-6 39 38 39 38 -37 6 c-86 14 -477 6 -631 -14 -145 -18 -277 -42 -314 -56 -21
-8 -108 5 -101 15 2 5 15 11 27 14 13 2 59 14 103 27 193 53 288 63 644 66
l334 3 41 35 c22 19 37 38 32 43 -4 4 -135 10 -291 12 -291 3 -371 -3 -575
-45 -164 -35 -335 -91 -403 -133 -19 -12 -47 -21 -62 -21 -48 0 -122 -48 -145
-94 -11 -23 -36 -57 -56 -76 -38 -37 -109 -134 -81 -111 24 19 21 -2 -4 -25
-23 -21 -89 -108 -89 -118 0 -3 17 13 38 35 38 43 158 139 173 139 5 0 9 -9 9
-19 0 -12 -15 -29 -37 -42 -104 -63 -196 -165 -220 -244 -49 -158 44 -258 252
-269 44 -3 69 -3 55 0 -175 38 -250 89 -250 170 0 55 80 182 154 242 l40 34
12 -29 c6 -15 19 -52 28 -81 27 -82 80 -192 111 -229 6 -6 21 -26 35 -45 39
-52 152 -161 211 -204 221 -161 546 -304 839 -369 41 -9 85 -21 98 -26 13 -5
33 -9 45 -9 20 -1 19 -4 -13 -31 -53 -45 -202 -114 -325 -150 -105 -31 -117
-32 -280 -32 -137 0 -185 4 -250 20 -270 68 -491 219 -650 444 -63 88 -126
219 -148 304 -9 33 -22 83 -29 110 -8 33 -13 109 -12 220 0 154 3 179 28 270
67 243 197 438 390 587 159 123 326 192 541 222 56 8 300 -4 360 -18z m-1104
-121 c13 -13 32 -25 42 -25 10 0 18 -8 19 -20 0 -11 1 -26 2 -32 1 -7 -6 -13
-14 -13 -22 -1 -40 -14 -40 -31 0 -8 -13 -29 -29 -46 l-29 -31 -46 45 c-25 25
-46 50 -46 55 0 12 68 83 78 82 4 -1 14 -1 22 0 12 1 13 3 1 10 -13 9 -7 31 9
31 4 0 18 -11 31 -25z m1826 -37 c35 -34 63 -65 63 -69 0 -4 -9 -9 -21 -12
-11 -3 -23 -15 -26 -26 -3 -11 -9 -19 -13 -16 -4 2 -15 -4 -25 -15 -20 -22
-45 -27 -45 -8 0 6 10 22 22 35 12 13 17 23 11 23 -6 0 -16 -7 -23 -15 -20
-24 -33 -18 -73 29 -32 39 -35 46 -21 57 9 7 20 24 25 36 5 13 12 23 16 22 20
-3 34 2 28 11 -3 6 0 10 7 10 7 0 41 -28 75 -62z m-1992 -189 c30 -17 57 -35
60 -40 3 -4 -7 -28 -22 -51 -15 -24 -35 -56 -44 -73 -10 -16 -22 -29 -28 -28
-21 5 -111 65 -111 75 0 11 80 148 86 148 2 0 29 -14 59 -31z m2125 12 c0 -5
11 -19 25 -32 13 -13 25 -29 25 -36 0 -7 8 -27 19 -45 18 -33 18 -33 -5 -51
-22 -16 -23 -16 -33 0 -6 10 -11 13 -11 6 0 -6 -9 -15 -20 -18 -11 -4 -19 -14
-18 -22 5 -26 -18 -25 -30 1 -9 20 -7 27 8 41 15 14 17 22 9 36 -8 15 -14 17
-29 9 -28 -15 -34 -13 -53 19 -20 34 -3 57 19 27 16 -22 34 -13 27 14 -3 12 0
20 8 20 7 0 9 3 6 7 -4 3 3 12 16 19 28 15 37 16 37 5z m-2241 -276 c10 -10
11 -20 3 -44 -9 -26 -8 -31 9 -36 25 -8 19 -30 -8 -29 -14 0 -24 -10 -32 -33
-14 -37 -15 -37 -58 -23 -29 10 -30 14 -29 65 0 37 4 55 13 55 7 0 16 12 19
28 4 15 9 30 11 35 6 10 55 -2 72 -18z m736 5 c3 -5 -1 -10 -10 -10 -20 0 -97
-31 -182 -73 -70 -35 -95 -28 -45 11 81 63 217 104 237 72z m1660 -26 c8 -20
15 -44 15 -53 0 -9 7 -29 15 -45 19 -37 19 -39 -5 -33 -12 3 -20 0 -20 -8 0
-7 -10 -13 -22 -13 -13 1 -37 -3 -54 -7 -24 -5 -33 -3 -37 9 -7 17 -3 20 46
30 15 4 27 10 27 15 0 6 -16 5 -36 -1 -28 -7 -39 -7 -45 4 -12 19 -11 29 4 26
15 -4 19 10 11 35 -3 10 -12 16 -19 13 -17 -6 -39 19 -30 34 3 6 10 8 14 5 5
-2 28 2 52 9 64 20 67 20 84 -20z m-2045 -174 c-62 -54 -76 -50 -16 6 26 25
51 42 54 39 4 -3 -14 -23 -38 -45z m-380 -180 c0 -56 -2 -60 -22 -59 -13 0
-17 3 -10 6 6 2 12 10 12 17 0 18 -88 30 -106 15 -11 -9 -14 -6 -14 14 0 14 5
29 10 32 6 3 10 1 10 -4 0 -6 21 -11 50 -11 51 0 64 12 38 38 -9 9 -7 12 10
12 20 0 22 -5 22 -60z m2488 48 c7 -7 12 -26 12 -44 0 -23 -5 -33 -20 -37 -24
-6 -25 -1 -5 20 9 8 14 20 12 26 -7 23 -28 17 -44 -12 -15 -26 -23 -31 -48
-29 -26 3 -30 8 -33 36 -2 22 2 34 13 38 24 10 30 -4 11 -25 -13 -14 -14 -21
-5 -27 8 -4 23 6 42 29 31 39 45 45 65 25z m22 -115 c0 -12 -16 -35 -24 -34
-21 3 -26 -2 -26 -30 0 -26 3 -31 20 -26 15 4 20 0 20 -15 0 -11 -3 -18 -7
-16 -63 28 -132 64 -133 69 0 4 24 14 53 24 28 9 59 21 67 26 19 11 30 11 30
2z m-2569 -13 c25 -14 24 -46 -1 -60 -18 -10 -20 -8 -20 20 0 32 -6 36 -30 20
-12 -8 -13 -13 -2 -30 18 -29 15 -36 -8 -15 -48 44 1 97 61 65z m0 -90 c24
-13 27 -70 4 -70 -17 0 -20 16 -5 25 20 12 9 26 -17 23 -22 -2 -28 -8 -27 -26
1 -29 -20 -23 -24 8 -3 15 3 29 14 37 22 16 30 16 55 3z m2452 -42 c-15 -7
-23 -20 -23 -38 0 -32 17 -50 46 -50 44 0 54 10 54 54 1 34 2 38 11 23 14 -24
4 -76 -19 -93 -56 -43 -123 11 -107 86 5 24 12 30 33 29 27 0 27 0 5 -11z
m-2379 -60 c-3 -4 -13 -8 -23 -8 -14 0 -17 -6 -13 -25 3 -16 -1 -26 -9 -28 -8
-2 -28 -9 -46 -14 -27 -9 -32 -8 -36 7 -3 13 2 17 26 18 33 1 53 15 43 30 -6
11 -44 5 -62 -10 -8 -5 -13 -2 -17 11 -4 16 2 20 47 25 28 4 58 11 66 16 15 9
33 -7 24 -22z m-20 -110 c14 -26 14 -34 3 -45 -15 -16 -73 -34 -81 -25 -11 10
-6 30 7 29 40 -1 57 5 57 19 0 17 -22 16 -62 -1 -13 -5 -18 -3 -18 8 0 9 13
18 30 22 16 4 32 11 35 16 9 14 12 11 29 -23z m2433 -49 c33 -25 53 -47 51
-57 -4 -19 -23 -13 -23 8 0 18 -26 24 -68 16 -25 -5 -32 -11 -33 -30 -1 -18 5
-26 23 -30 13 -4 28 -4 33 -1 14 9 12 -7 -5 -49 -17 -40 -22 -42 -74 -24 -35
13 -51 25 -51 41 0 8 31 6 40 -3 3 -3 16 -10 30 -16 20 -9 28 -8 38 2 11 12 8
16 -13 24 -15 6 -33 10 -41 10 -18 0 -18 6 1 61 15 43 18 45 48 42 30 -4 31
-3 13 11 -11 9 -23 16 -28 16 -4 0 -8 5 -8 10 0 17 11 12 67 -31z m-2366 -32
c-13 -13 -26 -3 -16 12 3 6 11 8 17 5 6 -4 6 -10 -1 -17z m-36 -18 c-3 -4 -21
-11 -40 -15 -19 -3 -35 -10 -35 -15 0 -17 -18 -9 -23 11 -3 12 -1 20 6 19 21
-4 67 13 67 23 0 6 6 5 15 -2 8 -7 12 -16 10 -21z m25 -59 c11 -21 6 -40 -11
-40 -6 0 -8 9 -4 19 8 25 -9 35 -35 21 -25 -13 -26 -36 -2 -49 15 -9 15 -10 0
-11 -17 0 -48 25 -48 40 0 38 82 54 100 20z m38 -90 c2 -23 -10 -36 -68 -67
-3 -2 -11 11 -19 28 -18 40 -3 58 34 41 32 -15 35 -15 35 -2 0 6 -7 10 -15 10
-8 0 -15 5 -15 11 0 6 10 9 23 7 15 -2 23 -11 25 -28z m2222 10 c0 -5 11 -10
24 -10 14 0 28 -5 31 -10 9 -15 -23 -62 -36 -54 -6 3 -3 11 8 19 10 7 15 17
10 21 -4 4 -13 2 -19 -4 -15 -15 -45 -16 -53 -2 -10 16 5 50 21 50 8 0 14 -4
14 -10z m-2155 -51 c0 -8 -20 -24 -44 -36 -25 -13 -48 -28 -53 -35 -6 -10 -10
-10 -18 2 -14 22 -12 30 6 30 25 0 94 42 87 53 -3 5 0 8 8 5 8 -3 14 -11 14
-19z m2065 -4 c0 -8 -4 -15 -10 -15 -5 0 -10 7 -10 15 0 8 5 15 10 15 6 0 10
-7 10 -15z m66 -26 c3 -5 14 -9 25 -9 21 0 22 -1 13 -24 -5 -13 -10 -12 -37 4
-17 10 -34 17 -39 14 -4 -3 -8 4 -8 14 0 15 5 19 20 15 11 -3 23 -9 26 -14z
m-2056 -81 c0 -5 -3 -7 -7 -6 -14 4 -93 -47 -93 -60 0 -17 -17 -6 -31 20 -8
15 -8 19 0 14 12 -8 101 52 101 68 0 11 29 -25 30 -36z m2038 25 c16 -10 27
-24 25 -31 -4 -9 -12 -7 -33 8 -15 11 -33 20 -39 20 -22 0 -11 -27 17 -40 15
-8 29 -15 31 -17 1 -1 -9 -17 -23 -36 l-27 -35 -26 24 c-14 13 -30 24 -34 24
-5 0 -9 7 -9 16 0 8 5 12 10 9 6 -3 10 1 10 10 0 8 7 18 15 21 8 4 15 15 15
25 0 24 30 25 68 2z m-2018 -117 c0 -4 -13 -23 -29 -42 l-29 -33 -26 32 -27
32 33 30 33 31 22 -21 c13 -11 23 -24 23 -29z m1903 8 c3 -4 0 -16 -8 -28 -20
-28 -19 -36 5 -36 13 0 20 7 20 20 0 11 5 20 10 20 15 0 12 -36 -5 -50 -18
-15 -64 -5 -72 15 -9 26 6 65 26 65 10 0 21 -3 24 -6z m-1853 -59 c10 -12 10
-19 2 -27 -9 -9 -12 -7 -12 10 0 12 -4 22 -10 22 -5 0 -8 -17 -7 -37 2 -32 -1
-38 -20 -41 -26 -4 -46 27 -32 49 7 11 9 9 9 -8 0 -12 5 -25 10 -28 6 -4 10
10 10 34 0 33 3 41 19 41 10 0 24 -7 31 -15z m1721 -21 c11 -14 13 -14 21 0
12 22 40 20 60 -3 8 -10 22 -21 29 -24 11 -4 12 -7 2 -18 -11 -10 -18 -8 -41
14 -32 30 -42 34 -42 13 0 -8 12 -24 27 -36 25 -19 26 -22 10 -37 -10 -10 -17
-13 -17 -6 0 20 -76 97 -84 85 -3 -6 -2 -13 4 -17 19 -12 10 -20 -22 -20 -30
0 -33 -3 -36 -32 -3 -25 2 -35 22 -48 32 -21 57 -16 73 15 11 21 13 22 13 6 0
-30 -30 -56 -65 -56 -68 0 -94 83 -39 127 16 12 36 30 44 38 18 19 24 19 41
-1z m-1664 -24 c-1 -11 -6 -20 -13 -20 -6 0 -19 -9 -30 -21 -16 -17 -16 -22
-4 -29 12 -8 10 -10 -7 -10 -13 0 -23 6 -23 14 0 8 10 30 23 50 24 39 57 48
54 16z m63 -10 c0 -5 -7 -10 -15 -10 -8 0 -15 5 -15 10 0 6 7 10 15 10 8 0 15
-4 15 -10z m-26 -28 c3 -5 -8 -22 -24 -37 -16 -15 -27 -32 -24 -37 8 -12 -10
-10 -23 3 -9 9 -6 17 13 31 13 11 24 26 24 34 0 15 25 19 34 6z m52 -27 c-3
-9 3 -20 14 -27 24 -15 25 -31 5 -48 -14 -12 -21 -50 -9 -50 10 0 43 44 44 59
0 11 3 11 15 1 13 -11 12 -16 -5 -40 -11 -16 -20 -33 -20 -39 0 -14 -1 -14
-38 5 -35 17 -39 31 -17 60 16 21 20 54 7 54 -17 0 -44 -39 -39 -55 4 -9 1
-15 -9 -15 -8 0 -17 6 -20 14 -7 17 35 84 56 90 8 2 17 4 19 5 2 0 1 -6 -3
-14z m1411 -84 c15 -27 31 -47 35 -45 16 10 8 -12 -10 -27 -32 -28 -51 -29
-72 -7 -24 26 -25 46 -4 70 13 13 14 21 5 31 -11 13 -6 27 10 27 4 0 20 -22
36 -49z m-1274 -11 c3 -13 0 -20 -9 -20 -17 0 -37 -37 -30 -56 6 -16 -20 -19
-30 -3 -3 6 2 27 12 47 28 55 48 66 57 32z m55 -39 c8 -4 12 -18 10 -30 -3
-20 -5 -20 -30 -7 -27 14 -28 14 -28 -10 0 -19 5 -24 28 -24 24 -1 25 -2 8
-11 -25 -15 -66 4 -66 31 0 22 33 60 53 60 6 0 18 -4 25 -9z m1145 -30 l26
-40 -31 -15 c-42 -21 -41 -21 -66 23 l-22 39 23 15 c33 24 42 21 70 -22z
m-888 -22 c11 -17 -3 -23 -20 -9 -13 10 -15 9 -15 -8 0 -11 6 -23 13 -25 7 -3
5 -6 -5 -6 -19 -1 -34 -42 -24 -67 5 -12 1 -14 -17 -8 -31 9 -30 8 -12 43 9
18 13 36 10 41 -8 13 26 50 47 50 9 0 20 -5 23 -11z m790 -19 c4 -16 11 -30
16 -30 5 0 9 -4 9 -10 0 -5 -8 -10 -18 -10 -10 0 -23 -5 -30 -12 -9 -10 -15
-9 -27 3 -14 14 -14 18 4 41 19 24 19 38 -1 38 -4 0 -8 -7 -8 -15 0 -8 -4 -15
-10 -15 -12 0 -12 3 -4 24 4 9 18 16 34 16 23 0 30 -5 35 -30z m-903 3 c22
-20 23 -41 1 -65 -20 -22 -41 -23 -65 -1 -22 20 -23 32 -2 61 18 26 41 28 66
5z m242 -19 c29 -29 12 -64 -31 -64 -22 0 -28 -12 -24 -46 1 -7 -9 -9 -25 -6
-14 2 -21 8 -15 11 6 4 12 32 13 64 3 57 3 57 35 57 17 0 39 -7 47 -16z m336
1 c0 -8 -4 -15 -9 -15 -13 0 -22 16 -14 24 11 11 23 6 23 -9z m-280 -14 c0
-12 9 -21 25 -25 22 -6 25 -12 25 -51 0 -36 -3 -45 -18 -45 -14 0 -17 7 -14
40 3 24 0 40 -7 40 -13 0 -25 -45 -17 -65 4 -10 -1 -15 -15 -15 -11 0 -18 4
-15 8 3 5 6 37 7 70 1 45 6 62 15 62 8 0 14 -9 14 -19z m460 5 c0 -10 -7 -12
-22 -8 -14 3 -19 2 -14 -6 4 -7 16 -12 27 -12 25 0 35 -25 19 -45 -16 -19 -46
-19 -54 0 -6 17 5 20 21 4 7 -7 13 -7 17 0 4 5 -7 17 -24 26 -33 17 -36 25
-18 43 16 16 48 15 48 -2z m-72 -23 c2 -7 -3 -13 -12 -13 -9 0 -16 4 -16 10 0
5 -7 7 -16 3 -20 -7 -14 -43 10 -57 14 -8 20 -8 23 2 3 6 9 12 14 12 13 0 -1
-28 -18 -34 -41 -16 -75 32 -53 75 13 22 60 24 68 2z m-229 -10 c0 -5 -13 -37
-27 -73 -25 -61 -50 -82 -59 -52 -3 6 2 12 10 12 24 0 26 24 7 68 -19 41 -19
42 0 42 11 0 19 -3 19 -7 -1 -5 -1 -16 0 -25 2 -27 21 -22 21 5 0 13 3 27 7
30 9 9 23 9 22 0z m71 -9 c0 -14 -3 -14 -15 -4 -26 21 -16 -1 11 -27 21 -19
24 -26 14 -38 -7 -8 -24 -15 -37 -15 -21 0 -25 4 -21 24 3 14 1 30 -3 38 -4 7
-3 18 3 25 15 18 48 16 48 -3z m54 4 c2 -7 8 -28 14 -45 9 -30 8 -33 -9 -33
-15 0 -19 7 -19 33 0 18 -5 38 -12 45 -9 9 -8 12 5 12 10 0 19 -6 21 -12z"/>
<path d="M2130 2776 c0 -8 5 -18 10 -21 6 -3 10 1 10 9 0 8 -4 18 -10 21 -5 3
-10 -1 -10 -9z"/>
<path d="M2140 2721 c0 -25 6 -27 13 -6 4 8 2 17 -3 20 -6 4 -10 -3 -10 -14z"/>
<path d="M2238 2703 c7 -3 16 -2 19 1 4 3 -2 6 -13 5 -11 0 -14 -3 -6 -6z"/>
<path d="M1910 2734 l-25 -15 25 7 c28 7 35 12 29 18 -2 2 -15 -2 -29 -10z"/>
<path d="M1886 2662 c-2 -4 -1 -14 5 -22 7 -12 9 -10 9 8 0 23 -5 28 -14 14z"/>
<path d="M1840 2651 c0 -6 4 -13 10 -16 6 -3 7 1 4 9 -7 18 -14 21 -14 7z"/>
<path d="M2725 2710 c3 -5 16 -10 28 -10 18 0 19 2 7 10 -20 13 -43 13 -35 0z"/>
<path d="M2768 2663 c7 -3 16 -2 19 1 4 3 -2 6 -13 5 -11 0 -14 -3 -6 -6z"/>
<path d="M1639 2593 c-13 -17 -13 -17 6 -3 11 8 22 16 24 17 2 2 0 3 -6 3 -6
0 -17 -8 -24 -17z"/>
<path d="M1630 2549 c-22 -18 -22 -19 -3 -10 12 6 25 16 28 21 9 15 3 12 -25
-11z"/>
<path d="M2288 2563 c17 -2 47 -2 65 0 17 2 3 4 -33 4 -36 0 -50 -2 -32 -4z"/>
<path d="M2100 2545 l-45 -14 50 6 c28 3 66 9 85 13 l35 8 -40 0 c-22 0 -60
-6 -85 -13z"/>
<path d="M2465 2548 c43 -8 148 -32 195 -45 11 -3 11 -2 -1 6 -24 15 -178 51
-214 50 -22 -1 -16 -4 20 -11z"/>
<path d="M1995 2515 l-30 -14 30 6 c17 3 37 9 45 14 27 15 -11 10 -45 -6z"/>
<path d="M1871 2469 c-35 -16 -62 -31 -60 -34 3 -2 27 6 54 19 28 12 61 28 75
34 14 6 18 11 10 11 -8 0 -44 -14 -79 -30z"/>
<path d="M2685 2490 c3 -5 13 -10 21 -10 38 0 189 -88 279 -163 162 -134 263
-285 336 -497 16 -47 29 -77 29 -67 0 24 -41 140 -76 212 -100 210 -280 391
-494 496 -80 39 -106 47 -95 29z"/>
<path d="M1730 2388 c-132 -86 -313 -293 -368 -422 -21 -48 -7 -39 18 12 74
147 214 308 348 396 62 41 81 56 69 56 -1 0 -31 -19 -67 -42z"/>
<path d="M1330 1890 c-7 -17 -10 -33 -8 -36 3 -3 11 9 17 27 6 18 9 34 7 36
-2 2 -9 -10 -16 -27z"/>
<path d="M1300 1800 c-6 -23 -9 -44 -7 -46 2 -3 9 14 15 38 6 23 9 44 7 46 -2
2 -9 -15 -15 -38z"/>
<path d="M1281 1724 c0 -11 3 -14 6 -6 3 7 2 16 -1 19 -3 4 -6 -2 -5 -13z"/>
<path d="M3352 1705 c0 -16 2 -22 5 -12 2 9 2 23 0 30 -3 6 -5 -1 -5 -18z"/>
<path d="M1273 1655 c0 -22 2 -30 4 -17 2 12 2 30 0 40 -3 9 -5 -1 -4 -23z"/>
<path d="M3363 1635 c0 -22 2 -30 4 -17 2 12 2 30 0 40 -3 9 -5 -1 -4 -23z"/>
<path d="M1264 1505 c0 -49 1 -71 3 -48 2 23 2 64 0 90 -2 26 -3 8 -3 -42z"/>
<path d="M3373 1510 c0 -47 2 -66 4 -42 2 23 2 61 0 85 -2 23 -4 4 -4 -43z"/>
<path d="M3362 1370 c0 -19 2 -27 5 -17 2 9 2 25 0 35 -3 9 -5 1 -5 -18z"/>
<path d="M1273 1355 c0 -22 2 -30 4 -17 2 12 2 30 0 40 -3 9 -5 -1 -4 -23z"/>
<path d="M3352 1305 c0 -16 2 -22 5 -12 2 9 2 23 0 30 -3 6 -5 -1 -5 -18z"/>
<path d="M1281 1284 c0 -11 3 -14 6 -6 3 7 2 16 -1 19 -3 4 -6 -2 -5 -13z"/>
<path d="M1291 1250 c0 -8 4 -24 9 -35 5 -13 9 -14 9 -5 0 8 -4 24 -9 35 -5
13 -9 14 -9 5z"/>
<path d="M1320 1150 c0 -8 5 -22 10 -30 9 -13 10 -13 10 0 0 8 -5 22 -10 30
-9 13 -10 13 -10 0z"/>
<path d="M1350 1075 c52 -138 193 -315 335 -420 69 -51 149 -99 193 -116 42
-16 22 0 -40 31 -193 98 -379 288 -464 474 -26 57 -41 77 -24 31z"/>
<path d="M2852 598 c-29 -17 -51 -33 -48 -35 5 -6 93 45 102 58 7 12 6 12 -54
-23z"/>
<path d="M2750 546 c-14 -8 -49 -22 -78 -31 -29 -10 -50 -20 -47 -23 5 -6 144
46 160 59 14 14 -6 10 -35 -5z"/>
<path d="M1949 510 c24 -11 51 -20 60 -20 9 1 -6 10 -34 20 -65 26 -83 25 -26
0z"/>
<path d="M2075 470 c11 -5 31 -8 45 -8 l25 0 -25 8 c-14 4 -34 8 -45 8 l-20 1
20 -9z"/>
<path d="M2510 470 l-25 -8 25 0 c14 0 36 4 50 8 l25 8 -25 0 c-14 0 -36 -4
-50 -8z"/>
<path d="M2173 453 c9 -2 25 -2 35 0 9 3 1 5 -18 5 -19 0 -27 -2 -17 -5z"/>
<path d="M2433 453 c9 -2 23 -2 30 0 6 3 -1 5 -18 5 -16 0 -22 -2 -12 -5z"/>
<path d="M2283 443 c20 -2 54 -2 75 0 20 2 3 4 -38 4 -41 0 -58 -2 -37 -4z"/>
<path d="M1420 2410 c0 -5 4 -10 9 -10 6 0 13 5 16 10 3 6 -1 10 -9 10 -9 0
-16 -4 -16 -10z"/>
<path d="M1382 2365 c-3 -5 -2 -7 3 -3 4 4 16 3 25 -2 12 -7 21 -6 28 3 8 9 3
12 -20 12 -16 0 -32 -4 -36 -10z"/>
<path d="M3225 2416 c17 -14 18 -17 5 -27 -13 -9 -13 -10 0 -6 22 6 18 41 -5
45 l-20 4 20 -16z"/>
<path d="M3167 2394 c-22 -29 -14 -31 13 -4 10 10 16 21 12 24 -4 2 -15 -7
-25 -20z"/>
<path d="M3265 2359 c-11 -17 1 -21 15 -4 8 9 8 15 2 15 -6 0 -14 -5 -17 -11z"/>
<path d="M3185 2349 c-11 -17 1 -21 15 -4 8 9 8 15 2 15 -6 0 -14 -5 -17 -11z"/>
<path d="M1239 2188 c-11 -20 -10 -22 3 -10 9 7 24 9 34 6 20 -8 19 -6 -8 14
-14 11 -18 10 -29 -10z"/>
<path d="M1203 2125 c-3 -9 -3 -18 -1 -21 3 -3 8 4 11 16 6 23 -1 27 -10 5z"/>
<path d="M1230 2105 c-7 -9 -8 -15 -2 -15 5 0 12 7 16 15 3 8 4 15 2 15 -2 0
-9 -7 -16 -15z"/>
<path d="M3400 2153 c0 -10 5 -25 10 -33 8 -13 10 -13 10 2 0 9 3 23 6 32 4
11 1 16 -10 16 -9 0 -16 -8 -16 -17z"/>
<path d="M1107 1931 c-6 -23 22 -38 35 -19 11 19 10 25 -8 32 -21 8 -21 8 -27
-13z"/>
<path d="M1087 1856 c-3 -8 1 -17 9 -20 23 -9 24 -8 24 14 0 23 -25 27 -33 6z"/>
<path d="M3485 1920 c4 -6 11 -8 16 -5 14 9 11 15 -7 15 -8 0 -12 -5 -9 -10z"/>
<path d="M3540 1908 c0 -10 -5 -18 -12 -18 -6 0 -9 -3 -5 -6 3 -3 12 -2 21 3
10 6 12 13 6 23 -8 13 -10 12 -10 -2z"/>
<path d="M3561 1471 c-10 -6 -10 -10 -1 -16 13 -8 24 -1 19 14 -3 6 -10 7 -18
2z"/>
<path d="M1071 1484 c0 -11 3 -14 6 -6 3 7 2 16 -1 19 -3 4 -6 -2 -5 -13z"/>
<path d="M1160 940 c0 -5 7 -10 16 -10 8 0 12 5 9 10 -3 6 -10 10 -16 10 -5 0
-9 -4 -9 -10z"/>
<path d="M3426 961 c-4 -5 -2 -12 3 -15 5 -4 12 -2 15 3 4 5 2 12 -3 15 -5 4
-12 2 -15 -3z"/>
<path d="M3320 777 c0 -18 45 -41 60 -32 8 5 3 13 -17 26 -33 22 -43 24 -43 6z"/>
<path d="M1327 712 c-19 -21 -22 -32 -7 -32 12 0 50 32 50 42 0 15 -27 8 -43
-10z"/>
<path d="M3255 699 c-4 -6 -5 -12 -2 -15 2 -3 7 2 10 11 7 17 1 20 -8 4z"/>
<path d="M2953 444 c-8 -20 21 -48 42 -40 15 5 14 8 -2 31 -21 29 -31 31 -40
9z"/>
<path d="M1750 410 c0 -5 5 -10 11 -10 5 0 7 5 4 10 -3 6 -8 10 -11 10 -2 0
-4 -4 -4 -10z"/>
<path d="M2870 393 c0 -23 26 -61 35 -51 10 9 -9 61 -23 66 -7 2 -12 -5 -12
-15z"/>
<path d="M2797 334 c-4 -4 -7 -14 -7 -23 0 -11 3 -12 11 -4 6 6 10 16 7 23 -2
6 -7 8 -11 4z"/>
<path d="M1877 343 c-4 -3 -7 -17 -7 -30 0 -35 34 -26 38 10 3 26 -14 37 -31
20z"/>
<path d="M2116 333 c-3 -3 -6 -15 -6 -25 0 -14 6 -19 22 -16 12 2 23 8 25 15
5 13 -31 36 -41 26z"/>
<path d="M2412 229 c2 -7 10 -15 17 -17 8 -3 12 1 9 9 -2 7 -10 15 -17 17 -8
3 -12 -1 -9 -9z"/>
<path d="M2698 2893 c7 -3 16 -2 19 1 4 3 -2 6 -13 5 -11 0 -14 -3 -6 -6z"/>
<path d="M1855 2875 l-30 -14 30 6 c17 3 37 9 45 14 27 15 -11 10 -45 -6z"/>
<path d="M2740 2880 c8 -5 22 -10 30 -10 13 0 13 1 0 10 -8 5 -22 10 -30 10
-13 0 -13 -1 0 -10z"/>
<path d="M1785 2850 c-8 -13 5 -13 25 0 13 8 13 10 -2 10 -9 0 -20 -4 -23 -10z"/>
<path d="M2825 2850 c3 -5 14 -10 23 -10 15 0 15 2 2 10 -20 13 -33 13 -25 0z"/>
<path d="M1682 2805 c-40 -19 -72 -37 -72 -40 0 -3 26 7 58 23 31 15 68 33 82
39 14 7 20 12 15 12 -6 1 -43 -15 -83 -34z"/>
<path d="M2900 2820 c8 -5 20 -10 25 -10 6 0 3 5 -5 10 -8 5 -19 10 -25 10 -5
0 -3 -5 5 -10z"/>
<path d="M2945 2800 c3 -5 11 -10 16 -10 6 0 7 5 4 10 -3 6 -11 10 -16 10 -6
0 -7 -4 -4 -10z"/>
<path d="M2980 2786 c0 -2 19 -15 43 -28 23 -13 56 -32 72 -42 l30 -18 -25 20
c-28 24 -120 76 -120 68z"/>
<path d="M1532 2719 c-34 -22 -62 -43 -62 -45 0 -3 6 -2 13 2 84 51 129 84
114 84 -1 0 -30 -18 -65 -41z"/>
<path d="M3210 2634 c165 -144 278 -278 355 -418 21 -37 39 -65 41 -63 11 11
-101 187 -173 272 -70 83 -201 207 -257 244 -12 7 4 -8 34 -35z"/>
<path d="M1415 2637 c-107 -83 -258 -256 -334 -379 -42 -69 -14 -39 44 46 94
141 215 268 334 353 2 2 2 5 0 7 -2 2 -22 -10 -44 -27z"/>
<path d="M1027 2163 c-4 -3 -7 -11 -7 -17 0 -6 5 -5 12 2 6 6 9 14 7 17 -3 3
-9 2 -12 -2z"/>
<path d="M3610 2134 c0 -6 7 -19 15 -30 8 -10 14 -14 14 -9 0 6 -6 19 -14 29
-8 11 -15 15 -15 10z"/>
<path d="M981 2065 c-12 -26 -21 -53 -20 -59 0 -6 11 13 25 43 13 30 22 56 20
58 -2 3 -14 -17 -25 -42z"/>
<path d="M3645 2065 c9 -37 46 -121 40 -90 -4 17 -15 48 -26 70 -10 22 -17 31
-14 20z"/>
<path d="M946 1975 c-3 -9 -6 -22 -5 -28 0 -7 5 -1 10 12 5 13 8 26 5 28 -2 2
-6 -3 -10 -12z"/>
<path d="M920 1885 c-7 -25 -10 -48 -8 -51 3 -2 11 16 17 42 15 61 8 68 -9 9z"/>
<path d="M3701 1900 c0 -8 4 -24 9 -35 5 -13 9 -14 9 -5 0 8 -4 24 -9 35 -5
13 -9 14 -9 5z"/>
<path d="M3721 1824 c0 -11 3 -14 6 -6 3 7 2 16 -1 19 -3 4 -6 -2 -5 -13z"/>
<path d="M902 1800 c0 -14 2 -19 5 -12 2 6 2 18 0 25 -3 6 -5 1 -5 -13z"/>
<path d="M3732 1775 c-1 -11 3 -38 7 -60 l9 -40 0 35 c0 19 -4 46 -8 60 -6 20
-8 21 -8 5z"/>
<path d="M885 1727 c-4 -25 -5 -52 -3 -59 3 -7 8 11 13 40 4 29 5 56 2 59 -3
2 -9 -16 -12 -40z"/>
<path d="M3753 1635 c0 -22 2 -30 4 -17 2 12 2 30 0 40 -3 9 -5 -1 -4 -23z"/>
<path d="M874 1495 c0 -66 1 -92 3 -57 2 34 2 88 0 120 -2 31 -3 3 -3 -63z"/>
<path d="M3752 1370 c0 -19 2 -27 5 -17 2 9 2 25 0 35 -3 9 -5 1 -5 -18z"/>
<path d="M882 1320 c0 -19 4 -46 8 -60 6 -20 8 -21 8 -5 1 11 -3 38 -7 60 l-9
40 0 -35z"/>
<path d="M3736 1271 c-4 -29 -5 -55 -2 -58 6 -7 19 83 14 99 -3 7 -8 -11 -12
-41z"/>
<path d="M902 1200 c0 -14 2 -19 5 -12 2 6 2 18 0 25 -3 6 -5 1 -5 -13z"/>
<path d="M3721 1184 c0 -11 3 -14 6 -6 3 7 2 16 -1 19 -3 4 -6 -2 -5 -13z"/>
<path d="M911 1155 c0 -11 4 -27 9 -35 9 -13 10 -13 9 0 0 8 -4 24 -9 35 l-9
20 0 -20z"/>
<path d="M3692 1084 c-12 -43 -20 -80 -18 -82 6 -5 47 139 44 150 -2 6 -14
-24 -26 -68z"/>
<path d="M931 1084 c0 -11 3 -14 6 -6 3 7 2 16 -1 19 -3 4 -6 -2 -5 -13z"/>
<path d="M956 1010 c3 -14 11 -32 16 -40 6 -10 7 -7 2 10 -3 14 -11 32 -16 40
-6 10 -7 7 -2 -10z"/>
<path d="M3656 974 c-4 -9 -4 -19 -1 -22 2 -3 7 3 11 12 4 9 4 19 1 22 -2 3
-7 -3 -11 -12z"/>
<path d="M980 945 c0 -14 91 -189 107 -205 7 -8 -12 35 -43 95 -61 118 -64
123 -64 110z"/>
<path d="M3602 855 c-23 -47 -40 -85 -37 -85 7 0 87 161 83 166 -2 2 -23 -35
-46 -81z"/>
<path d="M3501 684 c-105 -152 -270 -313 -403 -393 -21 -13 -38 -25 -38 -28 0
-11 108 61 175 116 76 64 206 204 263 285 35 48 61 90 59 92 -2 2 -28 -30 -56
-72z"/>
<path d="M1100 715 c0 -3 4 -11 10 -18 5 -7 37 -48 72 -92 124 -161 282 -292
472 -394 33 -17 61 -29 64 -27 2 3 -19 16 -48 31 -198 101 -407 279 -519 443
-38 57 -51 71 -51 57z"/>
<path d="M3024 244 c-18 -14 -18 -15 4 -4 12 6 22 13 22 15 0 8 -5 6 -26 -11z"/>
<path d="M2945 204 c-22 -13 -36 -24 -32 -24 11 0 87 39 87 45 0 9 -15 3 -55
-21z"/>
<path d="M1740 172 c8 -5 26 -13 40 -16 17 -5 20 -4 10 2 -8 5 -26 13 -40 16
-17 5 -20 4 -10 -2z"/>
<path d="M2817 153 c-37 -14 -66 -28 -63 -30 4 -4 136 44 145 52 9 10 -15 3
-82 -22z"/>
<path d="M1820 140 c8 -5 22 -9 30 -9 10 0 8 3 -5 9 -27 12 -43 12 -25 0z"/>
<path d="M1895 115 c34 -16 72 -21 45 -6 -8 5 -28 11 -45 14 l-30 6 30 -14z"/>
<path d="M2695 110 l-20 -9 20 0 c11 0 27 4 35 9 13 9 13 10 0 9 -8 0 -24 -4
-35 -9z"/>
<path d="M2025 80 c17 -4 41 -8 55 -8 22 0 22 1 -5 8 -16 4 -41 8 -55 8 -22 0
-22 -1 5 -8z"/>
<path d="M2560 80 l-25 -8 25 0 c14 0 36 4 50 8 l25 8 -25 0 c-14 0 -36 -4
-50 -8z"/>
<path d="M2133 63 c9 -2 23 -2 30 0 6 3 -1 5 -18 5 -16 0 -22 -2 -12 -5z"/>
<path d="M2473 63 c9 -2 23 -2 30 0 6 3 -1 5 -18 5 -16 0 -22 -2 -12 -5z"/>
<path d="M2263 53 c32 -2 81 -2 110 0 29 2 3 3 -58 3 -60 0 -84 -1 -52 -3z"/>
</g>
</svg>
